<?xml version="1.0" encoding="UTF-8"?>
<svg id="Livello_2" data-name="Livello 2" xmlns="http://www.w3.org/2000/svg" viewBox="0 0 1530 960">
  <polygon points="982.06 440 940 259.72 897.94 440 842.06 440 767.4 120 827.93 120 870 299.4 912.07 120 967.94 120 1010 300.28 1052.06 120 1112.6 120 1037.94 440 982.06 440"/>
  <path d="M940,840c-88.22,0-160-71.78-160-160,0-28.13,7.41-55.8,21.43-80.01,13.81-23.88,33.67-43.91,57.44-57.92,24.49-14.44,52.55-22.07,81.13-22.07s56.64,7.63,81.13,22.07c23.77,14.01,43.63,34.04,57.44,57.92,14.01,24.21,21.42,51.88,21.42,80.01,0,88.22-71.78,160-160,160ZM842.67,656.99c-1.78,7.51-2.67,15.21-2.67,23.01,0,26.71,10.4,51.82,29.29,70.71,18.89,18.89,44,29.29,70.71,29.29s51.82-10.4,70.71-29.29c18.89-18.89,29.29-44,29.29-70.71,0-7.8-.9-15.5-2.67-23.01-27.83,21.38-61.85,33.01-97.33,33.01s-69.49-11.62-97.33-33.01ZM873.87,605.01c4.79,4.23,9.96,7.99,15.47,11.23,15.27,9,32.79,13.76,50.67,13.76s35.4-4.76,50.66-13.76c5.5-3.25,10.68-7.01,15.47-11.23-.12-.1-.23-.21-.35-.31-.36-.31-.73-.63-1.1-.94-.51-.43-1.02-.86-1.55-1.29-.37-.31-.75-.61-1.13-.91-.53-.42-1.06-.83-1.6-1.24l-.1-.07c-.34-.26-.69-.52-1.03-.78-.57-.42-1.14-.83-1.72-1.23,0,0-.85-.6-1.09-.77-.63-.43-1.28-.86-1.93-1.28,0,0-.79-.52-.94-.62-.97-.62-1.94-1.22-2.93-1.8-15.27-9-32.79-13.76-50.67-13.76s-35.4,4.76-50.66,13.76c-.99.58-1.97,1.19-2.93,1.8-.17.11-.93.61-.93.61-.66.43-1.31.85-1.94,1.29-.24.17-1.1.77-1.1.77-.57.4-1.15.81-1.72,1.23-.34.25-.68.51-1.02.77l-.11.08c-.54.41-1.08.83-1.62,1.25-.37.29-.74.59-1.11.89-.53.43-1.05.87-1.57,1.31-.36.3-.72.61-1.07.92-.12.11-.24.21-.36.32Z"/>
  <path d="M580,440c-88.22,0-160-71.78-160-160,0-28.13,7.41-55.8,21.43-80.01,13.81-23.88,33.67-43.91,57.44-57.92,24.49-14.44,52.55-22.07,81.13-22.07s56.64,7.63,81.13,22.07c23.77,14.01,43.63,34.04,57.44,57.92,14.01,24.21,21.42,51.88,21.42,80.01,0,88.22-71.78,160-160,160ZM482.67,256.99c-1.78,7.51-2.67,15.21-2.67,23.01,0,26.71,10.4,51.82,29.29,70.71,18.89,18.89,44,29.29,70.71,29.29s51.82-10.4,70.71-29.29c18.89-18.89,29.29-44,29.29-70.71,0-7.8-.9-15.5-2.67-23.01-27.83,21.38-61.85,33.01-97.33,33.01s-69.49-11.62-97.33-33.01ZM513.87,205.01c4.79,4.23,9.96,7.99,15.47,11.23,15.27,9,32.79,13.76,50.67,13.76s35.4-4.76,50.66-13.76c5.5-3.25,10.68-7.01,15.47-11.23-.12-.1-.23-.21-.35-.31-.36-.31-.73-.63-1.1-.94-.51-.43-1.02-.86-1.55-1.29-.37-.31-.75-.61-1.13-.91-.53-.42-1.06-.83-1.6-1.24l-.1-.07c-.34-.26-.69-.52-1.03-.78-.57-.42-1.14-.83-1.72-1.23,0,0-.85-.6-1.09-.77-.63-.43-1.28-.86-1.93-1.28,0,0-.79-.52-.94-.62-.97-.62-1.94-1.22-2.93-1.8-15.27-9-32.79-13.76-50.67-13.76s-35.4,4.76-50.66,13.76c-.99.58-1.97,1.19-2.93,1.8-.17.11-.93.61-.93.61-.66.43-1.31.85-1.94,1.29-.24.17-1.1.77-1.1.77-.57.4-1.15.81-1.72,1.23-.34.25-.68.51-1.02.77l-.11.08c-.54.41-1.08.83-1.62,1.25-.37.29-.74.59-1.11.89-.53.43-1.05.87-1.57,1.31-.36.3-.72.61-1.07.92-.12.11-.24.21-.36.32Z"/>
  <polygon points="1170 440 1170 120 1230 120 1230 380 1410 380 1410 440 1170 440"/>
  <path d="M120,440V120h140c52.38,0,95,42.62,95,95,0,19.66-6.08,38.67-17.3,54.6,23.25,17.87,37.3,45.83,37.3,75.4,0,52.38-42.62,95-95,95H120ZM280,380c19.3,0,35-15.7,35-35s-15.7-35-35-35h-100v70h100ZM260,250c19.3,0,35-15.7,35-35s-15.7-35-35-35h-80v70h80Z"/>
  <path d="M654.34,840l-72-120h-62.34v120h-60v-320h150c55.14,0,100,44.86,100,100,0,43.14-27.7,80.95-67.57,94.6l75.23,125.4h-63.32ZM610,660c22.06,0,40-17.94,40-40s-17.94-40-40-40h-90v80h90Z"/>
  <path d="M1418,750c0,29.1-16.36,53.86-46.07,69.71-22.12,11.79-51.22,18.29-81.93,18.29s-59.81-6.5-81.92-18.29c-22.59-12.04-37.6-29.37-43.41-50.11l-.09-.34,54.82-12.79c6.57,14.62,36.54,25.53,70.6,25.53s72-12.23,72-32c0-23.14-19.35-30.92-77.49-42.54-26.57-5.32-54.04-10.81-76.43-22.75-30.58-16.31-46.08-41.45-46.08-74.71,0-28.85,15.62-53.5,43.98-69.42,21.36-11.98,49.42-18.58,79.02-18.58s57.66,6.6,79.02,18.58c23.27,13.06,37.97,31.92,42.52,54.56l-54.66,12.76-.09-.58c-2.87-18.35-36.21-29.32-66.79-29.32-32.22,0-67,12.23-67,32,0,23.14,19.35,30.92,77.49,42.54,26.57,5.32,54.04,10.81,76.43,22.75,30.58,16.31,46.08,41.45,46.08,74.71Z"/>
  <path d="M120,840v-320h150c57.9,0,105,47.1,105,105s-47.1,105-105,105h-90v110h-60ZM270,670c24.81,0,45-20.19,45-45s-20.19-45-45-45h-90v90h90Z"/>
  <path d="M1410,20c55.14,0,100,44.86,100,100v720c0,55.14-44.86,100-100,100H120c-55.14,0-100-44.86-100-100V120c0-55.14,44.86-100,100-100h1290M1410,0H120C53.73,0,0,53.73,0,120v720c0,66.27,53.73,120,120,120h1290c66.27,0,120-53.73,120-120V120c0-66.27-53.73-120-120-120h0Z"/>
</svg>