<?xml version="1.0" encoding="UTF-8"?>
<svg id="Livello_2" data-name="Livello 2" xmlns="http://www.w3.org/2000/svg" viewBox="0 0 903.33 549.11">
  <g id="Livello_1-2" data-name="Livello 1">
    <g>
      <g>
        <g>
          <path d="M126.66,70.06c35.67,0,55.82,20.93,55.82,49.36,0,18.87-11.37,34.12-26.62,39.29,17.83,4.39,32.3,20.68,32.3,43.42,0,29.72-22.23,51.17-56.6,51.17H60.76V70.06h65.9ZM121.23,145.79c16.28,0,26.1-9.04,26.1-23s-9.05-22.74-26.36-22.74h-25.07v45.74h25.33ZM124.85,223.58c17.31,0,27.65-9.05,27.65-23.78s-9.31-24.55-27.14-24.55h-29.46v48.33h28.95Z"/>
          <path d="M397.35,113.98c-6.78-12.55-16.2-22.9-27.37-30.71-15.84-11.08-35.19-17.08-55.42-17.08s-39.37,5.99-55.17,17.05c-11.16,7.82-20.59,18.18-27.37,30.74-7.3,13.52-11.53,29.59-11.53,47.83,0,58.93,44.45,95.37,94.07,95.37s94.33-36.44,94.33-95.37c0-18.24-4.23-34.31-11.54-47.83ZM314.55,100.56c13.34,0,26.75,4.38,37.27,13.25-10.52,8.86-23.94,13.24-37.27,13.24s-26.57-4.38-37.06-13.24c10.49-8.86,23.84-13.25,37.06-13.25ZM314.55,222.55c-28.17,0-57.12-19.64-57.12-60.99,0-6.14.71-11.75,1.89-16.94,15.81,11.07,35.09,17.07,55.23,17.07s39.62-6.01,55.48-17.1c1.19,5.2,1.9,10.82,1.9,16.97,0,41.35-28.95,60.99-57.37,60.99Z"/>
          <path d="M651.83,70.06h36.44l-50.65,183.24h-36.7l-41.87-130.51-41.87,130.51h-37.22l-50.91-183.24h37.73l33.6,126.12,40.57-126.12h36.96l40.84,126.64,33.08-126.64Z"/>
          <path d="M725.24,253.3V70.06h35.67v149.12h81.67v34.12h-117.33Z"/>
        </g>
        <g>
          <path d="M809.01,434.04c13.24,0,23.89,10.65,23.89,23.63s-10.65,23.63-23.89,23.63-23.63-10.65-23.63-23.63,10.65-23.63,23.63-23.63Z"/>
          <path d="M568.71,339.72c-6.78-12.55-16.2-22.9-27.37-30.71-15.84-11.08-35.19-17.08-55.42-17.08s-39.37,5.99-55.17,17.05c-11.16,7.82-20.59,18.18-27.37,30.74-7.3,13.52-11.53,29.59-11.53,47.83,0,58.93,44.45,95.37,94.07,95.37s94.33-36.44,94.33-95.37c0-18.24-4.23-34.31-11.54-47.83ZM485.92,326.3c13.34,0,26.75,4.38,37.27,13.25-10.52,8.86-23.94,13.24-37.27,13.24s-26.57-4.38-37.06-13.24c10.49-8.86,23.84-13.25,37.06-13.25ZM485.92,448.29c-28.17,0-57.12-19.64-57.12-60.99,0-6.14.71-11.75,1.89-16.94,15.81,11.07,35.09,17.07,55.23,17.07s39.62-6.01,55.48-17.1c1.19,5.2,1.9,10.82,1.9,16.97,0,41.35-28.95,60.99-57.37,60.99Z"/>
          <path d="M96.42,410.04v69.01h-35.67v-183.24h68.49c36.18,0,60.22,24.03,60.22,57.11s-24.04,57.12-60.22,57.12h-32.82ZM124.85,379.28c17.83,0,28.69-10.34,28.69-26.1s-10.86-26.36-28.69-26.36h-28.17v52.47h28.17Z"/>
          <path d="M284.06,408.49h-18.61v70.55h-35.92v-183.24h71.59c35.67,0,58.41,24.55,58.41,56.34,0,25.58-14.99,44.97-39.03,51.95l39.29,74.95h-39.8l-35.92-70.55ZM294.4,377.73c18.09,0,28.69-10.34,28.69-25.32s-10.6-25.59-28.69-25.59h-28.95v50.91h28.95Z"/>
          <path d="M714.9,349.3c-1.81-10.08-10.08-25.84-33.34-25.84-17.31,0-28.68,11.11-28.68,23.26,0,10.08,6.46,18.09,19.9,20.68l25.58,4.91c33.34,6.46,51.17,28.17,51.17,54.02,0,28.17-23.51,56.6-66.16,56.6-48.59,0-70.03-31.27-72.88-57.38l33.08-8.78c1.55,18.09,14.21,34.37,40.06,34.37,19.12,0,29.72-9.56,29.72-22.48,0-10.6-8.01-18.87-22.23-21.71l-25.58-5.17c-29.2-5.94-48.07-24.81-48.07-52.47,0-32.56,29.2-57.37,63.84-57.37,44.45,0,61.51,26.88,65.64,47.56l-32.05,9.82Z"/>
        </g>
      </g>
      <path d="M903.33,549.11H0V0h903.33v549.11ZM7.35,541.76h888.63V7.35H7.35v534.41Z"/>
    </g>
  </g>
</svg>