<?xml version="1.0" encoding="UTF-8"?>
<svg id="Livello_2" data-name="Livello 2" xmlns="http://www.w3.org/2000/svg" viewBox="0 0 1573.46 13.91">
  <defs>
    <style>
      .cls-1 {
        fill: #1d1d1b;
      }
    </style>
  </defs>
  <g id="Testi">
    <g>
      <path class="cls-1" d="M5.02,11.36c1.55,0,3.03-1.08,3.03-3.03,0-1.14-.69-1.94-1.55-1.94-.69,0-1.11.46-1.11,1.11,0,.57.39.98.94.99.09.79-.65,1.39-1.39,1.39-.92,0-1.44-.58-1.44-1.33,0-1.34,1.53-2.25,2.85-2.25s2.24.73,2.24,2.03c0,1.76-1.25,3.11-3.68,3.11-2.78,0-4.9-1.61-4.9-4.34C0,3.82,2.37.78,6.36.78c1.55,0,2.94.66,2.94,1.98,0,1.12-.85,1.62-1.6,1.62-.65,0-1.36-.43-1.18-1.4.64-.14.92-.62.92-1.08,0-.51-.3-1.04-1.07-1.04-2.2,0-3.76,4.47-3.76,7.46,0,1.75.57,3.04,2.41,3.04Z"/>
      <path class="cls-1" d="M17.67,6.28c0,2.16-1.94,4.1-4.26,4.1-1.86,0-3.15-1.23-3.15-2.95,0-2.24,1.92-4.1,4.25-4.1,1.87,0,3.16,1.23,3.16,2.95ZM15.29,4.91c0-.84-.16-1.5-.79-1.5-1.43,0-1.87,4.11-1.87,5.42,0,.83.18,1.48.78,1.48,1.44,0,1.88-3.93,1.88-5.39Z"/>
      <path class="cls-1" d="M26,7.44c-.27,1.64-.31,2.58.26,2.8v.03c-.34.07-.65.09-.96.09-1.1,0-2-.44-1.74-2.09l.54-3.37c.1-.64.05-.92-.27-.92-.71,0-1.57,1.57-2.05,3.51-.22.9-.58,2.53-.14,2.75v.03c-.46.07-.82.1-1.13.1-1.03,0-1.5-.44-1.21-2.04l.7-3.94c.09-.51-.12-.57-.55-.48v-.03c.46-.28,1.37-.53,1.99-.53.74,0,1.05.29.86,1.16l-.64,2.94h.04c.87-3.31,2.09-4.12,3.26-4.12,1.62,0,1.52,1.37,1.37,2.26l-.31,1.85Z"/>
      <path class="cls-1" d="M32.34,8.27l1.18-7.23c.08-.51-.12-.57-.55-.48v-.03c.46-.28,1.37-.53,1.99-.53.74,0,1.01.28.86,1.16l-1.07,6.29c-.28,1.64-.28,2.57.29,2.79v.03c-.34.07-.65.09-.96.09-1.11,0-2.02-.44-1.74-2.09Z"/>
      <path class="cls-1" d="M36.88,7.57c0-2.26,1.74-4.24,4.22-4.24,1.38,0,2.55.42,2.55,1.45s-1.44,1.88-4.2,1.38l.02-.07c1.48.15,2.25-1,2.25-1.84,0-.45-.19-.84-.62-.84-1.1,0-1.82,1.79-1.82,3.21s.67,2.24,1.81,2.26c.69,0,1.57-.24,2.17-1.06l.05.03c-.88,1.61-2.29,2.54-3.8,2.54s-2.64-1.04-2.64-2.81Z"/>
      <path class="cls-1" d="M48.78,8.94c0-.55.47-1.08,1.12-1.08.46,0,.96.29.94.87-.33.09-.56.44-.56.81s.27.75,1.22.75c.62,0,1.9-.17,1.9-1.03,0-1.6-4.06-1.31-4.06-3.54,0-1.6,1.91-2.41,3.62-2.41,1.11,0,2.42.27,2.42,1.26,0,.57-.44.96-.97.96-.46,0-.91-.27-.91-.81.29-.08.53-.35.53-.66,0-.42-.44-.68-1.09-.68-.72,0-1.6.32-1.6,1.03,0,1.64,3.99,1.16,3.99,3.39,0,1.79-2.15,2.55-3.87,2.55-1.24,0-2.68-.38-2.68-1.43Z"/>
      <path class="cls-1" d="M57.26,8.11l.61-3.72c.08-.51-.12-.57-.55-.48v-.03c.45-.28,1.36-.53,1.99-.53s.9.19.9.74c0,.67-.76,4.29-.78,5.06,0,.38.14.57.4.57.71,0,1.48-1.57,1.96-3.51.22-.9.58-2.53.14-2.75v-.03c.46-.07.82-.1,1.13-.1,1.03,0,1.5.43,1.21,2.04l-.38,2.07c-.21,1.12-.31,2.58.26,2.8v.03c-.34.07-.65.09-.96.09-1.09,0-2.06-.46-1.71-2.09l.43-2.02h-.04c-.87,3.33-1.98,4.12-3.15,4.12-1.62,0-1.62-1.37-1.48-2.26Z"/>
      <path class="cls-1" d="M65.9,7.57c0-2.26,1.74-4.24,4.22-4.24,1.38,0,2.55.42,2.55,1.45s-1.44,1.88-4.2,1.38l.02-.07c1.48.15,2.25-1,2.25-1.84,0-.45-.19-.84-.62-.84-1.1,0-1.82,1.79-1.82,3.21s.67,2.24,1.81,2.26c.69,0,1.57-.24,2.17-1.06l.05.03c-.88,1.61-2.29,2.54-3.8,2.54s-2.64-1.04-2.64-2.81Z"/>
      <path class="cls-1" d="M77.71,11.72c0-.66.47-1.19,1.18-1.19.6,0,1.12.44,1.08,1.17-.34.05-.65.35-.65.76,0,.34.23.77,1,.77,1.16,0,1.35-1.01,1.52-1.91l.98-5.06h-.04c-.81,3.23-1.77,4.11-2.94,4.11-1.37,0-1.85-1.22-1.85-2.41,0-2.41,2.07-4.63,4.41-4.63.75,0,1.26.52,2.01.52.33,0,.77-.12,1.07-.46l-1.13,6.76c-.33,2-1.78,3.15-4.03,3.15-1.6,0-2.61-.63-2.61-1.59ZM82.81,5.71l.14-.78c.13-.7.2-1.51-.49-1.51-1.24,0-2.12,3.32-2.12,5.27,0,.58.11,1.08.49,1.08.75,0,1.62-2.11,1.98-4.06Z"/>
      <path class="cls-1" d="M87.06,8.33l.7-3.94c.09-.51-.12-.57-.55-.48v-.03c.46-.28,1.37-.53,1.99-.53.74,0,1.05.29.86,1.16l-.64,2.94h.04c.87-3.3,1.76-4.17,3.04-4.17,1.18,0,1.64.83,1.64,1.57,0,.99-.68,1.72-1.61,1.72-.74,0-1.27-.46-1.26-1.21.49-.07.92-.44.92-.98,0-.43-.21-.64-.51-.64-.81,0-1.57,1.5-2.13,3.74-.22.9-.58,2.53-.14,2.75v.03c-.46.07-.82.1-1.13.1-1.03,0-1.5-.44-1.21-2.04Z"/>
      <path class="cls-1" d="M101.61,7.44c-.29,1.64-.31,2.58.26,2.8v.03c-.34.07-.65.09-.96.09-1.09,0-2.05-.46-1.7-2.09l.43-2h-.04c-.81,3.23-1.77,4.11-2.94,4.11-1.37,0-1.85-1.22-1.85-2.41,0-2.41,2.07-4.64,4.41-4.64.75,0,1.26.53,2.01.53.33,0,.77-.12,1.07-.46l-.69,4.03ZM97.17,8.68c0,.58.11,1.08.49,1.08.75,0,1.62-2.11,1.98-4.06l.14-.78c.13-.7.2-1.52-.49-1.52-1.24,0-2.12,3.33-2.12,5.28Z"/>
      <path class="cls-1" d="M107.37,6.9c-1.18.47-2.37.94-2.91,1.82,1.78-.66,4.87-.43,4.87-1.36,0-.18-.12-.31-.29-.4l.03-.04c.81.23,1.25.74,1.25,1.59,0,1.09-1.01,1.87-2.04,1.87-1.36,0-2.66-1.61-3.57-1.61-.24,0-.6.11-.61.45,0,.2.14.47.64.34.14.58-.26.88-.64.88-.34,0-.65-.22-.65-.65,0-.56.57-.88.9-1.02.52-.96,1.77-1.46,2.99-1.95,1.21-.5,2.38-.96,2.74-1.87-.02,0-.05.02-.07.03-1.69.62-4.78.14-4.78,1.25,0,.3.22.47.42.52l-.03.04c-1.04-.16-1.35-.99-1.35-1.61,0-.92.55-1.85,1.78-1.85,1.46,0,2.88,1.58,3.78,1.58.21,0,.59-.09.59-.43,0-.29-.27-.46-.7-.37-.1-.4.16-.86.64-.86.33,0,.64.23.64.64,0,.49-.32.81-.8,1.02-.34.99-1.58,1.47-2.81,1.98h0Z"/>
      <path class="cls-1" d="M112.15,8.27l.69-3.87c.09-.51-.11-.57-.55-.48v-.03c.45-.28,1.36-.53,1.99-.53.78,0,1,.32.85,1.16l-.52,2.94c-.29,1.64-.33,2.57.25,2.79v.03c-.34.07-.65.09-.96.09-1.1,0-2.04-.44-1.74-2.09ZM113.42,2.82c.27-.44.4-1.43,0-1.92.31-.57.91-.9,1.44-.9.49,0,1.08.26,1.08.99,0,1.01-1.17,1.91-2.51,1.86l-.02-.03Z"/>
      <path class="cls-1" d="M116.69,7.57c0-2.26,1.74-4.24,4.22-4.24,1.38,0,2.55.42,2.55,1.45s-1.44,1.88-4.2,1.38l.02-.07c1.48.15,2.25-1,2.25-1.84,0-.45-.19-.84-.62-.84-1.1,0-1.82,1.79-1.82,3.21s.67,2.24,1.81,2.26c.69,0,1.57-.24,2.17-1.06l.05.03c-.88,1.61-2.29,2.54-3.8,2.54s-2.64-1.04-2.64-2.81Z"/>
      <path class="cls-1" d="M135.58,7.44c-.29,1.64-.31,2.58.26,2.8v.03c-.34.07-.65.09-.96.09-1.09,0-2.05-.46-1.7-2.09l.43-2h-.04c-.81,3.23-1.77,4.11-2.94,4.11-1.37,0-1.85-1.22-1.85-2.41,0-2.41,2.07-4.64,4.41-4.64.75,0,1.26.53,2.01.53.33,0,.77-.12,1.07-.46l-.69,4.03ZM131.14,8.68c0,.58.11,1.08.49,1.08.75,0,1.62-2.11,1.98-4.06l.14-.78c.13-.7.2-1.52-.49-1.52-1.24,0-2.12,3.33-2.12,5.28Z"/>
      <path class="cls-1" d="M145.25.83c0-.39-.2-.65-.68-.65-.77,0-1.24.64-1.24,1.29,0,1.11,1.07,1.31,1.2,1.96h1.09v.08h-.91l-1,6.34c-.25,1.57-.86,3.46-2.65,3.46-1.01,0-1.46-.61-1.46-1.24s.46-1.3,1.24-1.3c.7,0,.93.49.86.95-.49.08-.81.35-.81.79,0,.31.2.61.61.61.6,0,.92-.54.92-1.17,0-1.12-1.18-1.37-1-2.51l.92-5.94h-1.34l-1,6.34c-.25,1.57-.95,3.46-2.82,3.46-1.13,0-1.75-.73-1.75-1.52s.6-1.38,1.35-1.38c.62,0,1.17.4,1.18,1.21-.52.12-.83.46-.83.9,0,.31.21.57.6.57.64,0,.98-.5.98-1.13,0-1.12-1.18-1.37-1-2.51l.94-5.94h-.72v-.08h.73c.29-1.87.73-3.43,2.57-3.43,1.04,0,1.63.46,1.83,1.05.39-.65.98-1.05,1.95-1.05,1.3,0,1.9.71,1.9,1.52s-.57,1.44-1.39,1.44c-.64,0-1.16-.42-1.14-1.23.56-.1.86-.42.86-.9ZM142.38,3.43c.04-.23.07-.45.12-.67-.21.13-.46.2-.73.2-.64,0-1.16-.42-1.14-1.23.56-.1.86-.42.86-.9,0-.39-.23-.65-.68-.65-.72,0-1.16.64-1.16,1.29,0,1.11,1.07,1.31,1.2,1.96h1.53Z"/>
      <path class="cls-1" d="M146.29,8.27l.69-3.87c.09-.51-.11-.57-.55-.48v-.03c.46-.28,1.37-.53,1.99-.53.78,0,1,.32.85,1.16l-.52,2.94c-.29,1.64-.33,2.57.25,2.79v.03c-.34.07-.65.09-.96.09-1.1,0-2.04-.44-1.74-2.09ZM147.56,2.82c.27-.44.4-1.43,0-1.92.31-.57.91-.9,1.44-.9.49,0,1.08.26,1.08.99,0,1.01-1.17,1.91-2.51,1.86l-.02-.03Z"/>
      <path class="cls-1" d="M150.92,8.27l1.18-7.23c.08-.51-.12-.57-.55-.48v-.03c.46-.28,1.37-.53,1.99-.53.74,0,1.01.28.86,1.16l-1.07,6.29c-.28,1.64-.28,2.57.29,2.79v.03c-.34.07-.65.09-.96.09-1.11,0-2.02-.44-1.74-2.09Z"/>
      <path class="cls-1" d="M162.19,7.44c-.29,1.64-.31,2.58.26,2.8v.03c-.34.07-.65.09-.96.09-1.09,0-2.05-.46-1.7-2.09l.43-2h-.04c-.81,3.23-1.77,4.11-2.94,4.11-1.37,0-1.85-1.22-1.85-2.41,0-2.41,2.07-4.64,4.41-4.64.75,0,1.26.53,2.01.53.33,0,.77-.12,1.07-.46l-.69,4.03ZM157.75,8.68c0,.58.11,1.08.49,1.08.75,0,1.62-2.11,1.98-4.06l.14-.78c.13-.7.2-1.52-.49-1.52-1.24,0-2.12,3.33-2.12,5.28Z"/>
      <path class="cls-1" d="M165.03,3.51h-.58v-.08c1.88,0,2.95-.61,3.28-2.46h.08l-.42,2.46h.91v.08h-.92l-.66,3.99c-.3,1.83-.3,2.52.4,2.74v.03c-.47.07-.78.09-1.09.09-1.11,0-2-.44-1.74-2.09l.73-4.76Z"/>
      <path class="cls-1" d="M168.74,7.57c0-2.26,1.74-4.24,4.22-4.24,1.38,0,2.55.42,2.55,1.45s-1.44,1.88-4.2,1.38l.02-.07c1.48.15,2.25-1,2.25-1.84,0-.45-.19-.84-.62-.84-1.1,0-1.82,1.79-1.82,3.21s.67,2.24,1.81,2.26c.69,0,1.57-.24,2.17-1.06l.05.03c-.88,1.61-2.29,2.54-3.8,2.54s-2.64-1.04-2.64-2.81Z"/>
      <path class="cls-1" d="M180.89,7.57c0-2.26,1.74-4.24,4.22-4.24,1.38,0,2.55.42,2.55,1.45s-1.44,1.88-4.2,1.38l.02-.07c1.48.15,2.25-1,2.25-1.84,0-.45-.19-.84-.62-.84-1.1,0-1.82,1.79-1.82,3.21s.67,2.24,1.81,2.26c.69,0,1.57-.24,2.17-1.06l.05.03c-.88,1.61-2.29,2.54-3.8,2.54s-2.64-1.04-2.64-2.81Z"/>
      <path class="cls-1" d="M193.27,8.27l1.18-7.23c.08-.51-.12-.57-.55-.48v-.03c.46-.28,1.37-.53,1.99-.53.74,0,1.01.28.86,1.16l-1.07,6.29c-.28,1.64-.28,2.57.29,2.79v.03c-.34.07-.65.09-.96.09-1.11,0-2.02-.44-1.74-2.09Z"/>
      <path class="cls-1" d="M197.81,7.57c0-2.26,1.74-4.24,4.22-4.24,1.38,0,2.55.42,2.55,1.45s-1.44,1.88-4.2,1.38l.02-.07c1.48.15,2.25-1,2.25-1.84,0-.45-.19-.84-.62-.84-1.1,0-1.82,1.79-1.82,3.21s.67,2.24,1.81,2.26c.69,0,1.57-.24,2.17-1.06l.05.03c-.88,1.61-2.29,2.54-3.8,2.54s-2.64-1.04-2.64-2.81Z"/>
      <path class="cls-1" d="M212.37,6.62c0,1.46.67,2.24,1.81,2.26.69,0,1.57-.24,2.17-1.06l.05.03c-.88,1.61-2.29,2.54-3.8,2.54s-2.64-1.04-2.64-2.81c0-2.26,1.74-4.24,4.22-4.24,1.51,0,2.51.61,2.51,1.66,0,.81-.6,1.38-1.34,1.38-.55,0-1.12-.34-1.07-1.18.25-.1.65-.42.65-.96,0-.51-.27-.82-.74-.82-1.12,0-1.83,1.79-1.83,3.21Z"/>
      <path class="cls-1" d="M218.35,8.11l.61-3.72c.08-.51-.12-.57-.55-.48v-.03c.46-.28,1.37-.53,1.99-.53s.9.19.9.74c0,.67-.76,4.29-.78,5.06,0,.38.14.57.4.57.71,0,1.48-1.57,1.96-3.51.22-.9.58-2.53.14-2.75v-.03c.46-.07.82-.1,1.13-.1,1.03,0,1.5.43,1.21,2.04l-.38,2.07c-.21,1.12-.31,2.58.26,2.8v.03c-.34.07-.65.09-.96.09-1.09,0-2.06-.46-1.71-2.09l.43-2.02h-.04c-.87,3.33-1.98,4.12-3.15,4.12-1.62,0-1.62-1.37-1.48-2.26Z"/>
      <path class="cls-1" d="M227.25,8.33l.7-3.94c.09-.51-.12-.57-.55-.48v-.03c.46-.28,1.37-.53,1.99-.53.74,0,1.05.29.86,1.16l-.64,2.94h.04c.87-3.3,1.76-4.17,3.04-4.17,1.18,0,1.64.83,1.64,1.57,0,.99-.68,1.72-1.61,1.72-.74,0-1.27-.46-1.26-1.21.49-.07.92-.44.92-.98,0-.43-.21-.64-.51-.64-.81,0-1.57,1.5-2.13,3.74-.22.9-.58,2.53-.14,2.75v.03c-.46.07-.82.1-1.13.1-1.03,0-1.5-.44-1.21-2.04Z"/>
      <path class="cls-1" d="M235.54,8.26l.6-3.84c.08-.51-.12-.57-.55-.48v-.03c.46-.28,1.37-.53,1.99-.53.74,0,1.04.29.9,1.16l-.59,3.58c-.21,1.25-.25,1.81.36,1.81,1.41,0,3.45-2.3,3.45-3.89,0-.64-.34-.88-.77-.88-.36,0-.68.17-.83.55-.61-.08-.97-.6-.97-1.17,0-.69.61-1.21,1.34-1.21.78,0,1.47.61,1.47,1.94,0,2.65-2.52,5.11-4.86,5.11-1.22,0-1.77-.65-1.53-2.11Z"/>
      <path class="cls-1" d="M243.5,7.57c0-2.26,1.74-4.24,4.22-4.24,1.38,0,2.55.42,2.55,1.45s-1.44,1.88-4.2,1.38l.02-.07c1.48.15,2.25-1,2.25-1.84,0-.45-.19-.84-.62-.84-1.1,0-1.82,1.79-1.82,3.21s.67,2.24,1.81,2.26c.69,0,1.57-.24,2.17-1.06l.05.03c-.88,1.61-2.29,2.54-3.8,2.54s-2.64-1.04-2.64-2.81Z"/>
      <path class="cls-1" d="M255.92,8.26l.6-3.84c.08-.51-.12-.57-.55-.48v-.03c.45-.28,1.36-.53,1.99-.53.74,0,1.04.29.9,1.16l-.59,3.58c-.21,1.25-.25,1.81.36,1.81,1.41,0,3.45-2.3,3.45-3.89,0-.64-.34-.88-.77-.88-.36,0-.68.17-.83.55-.61-.08-.97-.6-.97-1.17,0-.69.61-1.21,1.34-1.21.78,0,1.47.61,1.47,1.94,0,2.65-2.52,5.11-4.86,5.11-1.22,0-1.77-.65-1.53-2.11Z"/>
      <path class="cls-1" d="M271.32,6.28c0,2.16-1.94,4.1-4.26,4.1-1.86,0-3.15-1.23-3.15-2.95,0-2.24,1.92-4.1,4.25-4.1,1.87,0,3.16,1.23,3.16,2.95ZM268.95,4.91c0-.84-.16-1.5-.79-1.5-1.43,0-1.87,4.11-1.87,5.42,0,.83.18,1.48.78,1.48,1.44,0,1.88-3.93,1.88-5.39Z"/>
      <path class="cls-1" d="M272.79,8.27l1.18-7.23c.08-.51-.12-.57-.55-.48v-.03c.46-.28,1.37-.53,1.99-.53.74,0,1.01.28.86,1.16l-1.07,6.29c-.28,1.64-.28,2.57.29,2.79v.03c-.34.07-.65.09-.96.09-1.11,0-2.02-.44-1.74-2.09Z"/>
      <path class="cls-1" d="M277.58,8.11l.61-3.72c.08-.51-.12-.57-.55-.48v-.03c.46-.28,1.37-.53,1.99-.53s.9.19.9.74c0,.67-.76,4.29-.78,5.06,0,.38.14.57.4.57.71,0,1.48-1.57,1.96-3.51.22-.9.58-2.53.14-2.75v-.03c.46-.07.82-.1,1.13-.1,1.03,0,1.5.43,1.21,2.04l-.38,2.07c-.21,1.12-.31,2.58.26,2.8v.03c-.34.07-.65.09-.96.09-1.09,0-2.06-.46-1.71-2.09l.43-2.02h-.04c-.87,3.33-1.98,4.12-3.15,4.12-1.62,0-1.62-1.37-1.48-2.26Z"/>
      <path class="cls-1" d="M287.05,3.51h-.58v-.08c1.88,0,2.95-.61,3.28-2.46h.08l-.42,2.46h.91v.08h-.92l-.66,3.99c-.3,1.83-.3,2.52.4,2.74v.03c-.47.07-.78.09-1.09.09-1.11,0-2-.44-1.74-2.09l.73-4.76Z"/>
      <path class="cls-1" d="M291.73,3.51h-.58v-.08c1.88,0,2.95-.61,3.28-2.46h.08l-.42,2.46h.91v.08h-.92l-.66,3.99c-.3,1.83-.3,2.52.4,2.74v.03c-.47.07-.78.09-1.09.09-1.11,0-2-.44-1.74-2.09l.73-4.76Z"/>
      <path class="cls-1" d="M295.84,8.11l.61-3.72c.08-.51-.12-.57-.55-.48v-.03c.46-.28,1.37-.53,1.99-.53s.9.19.9.74c0,.67-.76,4.29-.78,5.06,0,.38.14.57.4.57.71,0,1.48-1.57,1.96-3.51.22-.9.58-2.53.14-2.75v-.03c.46-.07.82-.1,1.13-.1,1.03,0,1.5.43,1.21,2.04l-.38,2.07c-.21,1.12-.31,2.58.26,2.8v.03c-.34.07-.65.09-.96.09-1.09,0-2.06-.46-1.71-2.09l.43-2.02h-.04c-.87,3.33-1.98,4.12-3.15,4.12-1.62,0-1.62-1.37-1.48-2.26Z"/>
      <path class="cls-1" d="M311.9,6.28c0,2.16-1.94,4.1-4.26,4.1-1.86,0-3.15-1.23-3.15-2.95,0-2.24,1.92-4.1,4.25-4.1,1.87,0,3.16,1.23,3.16,2.95ZM309.53,4.91c0-.84-.16-1.5-.79-1.5-1.43,0-1.87,4.11-1.87,5.42,0,.83.18,1.48.78,1.48,1.44,0,1.88-3.93,1.88-5.39Z"/>
      <path class="cls-1" d="M313.31,8.94c0-.55.47-1.08,1.12-1.08.46,0,.96.29.94.87-.33.09-.56.44-.56.81s.27.75,1.22.75c.62,0,1.9-.17,1.9-1.03,0-1.6-4.06-1.31-4.06-3.54,0-1.6,1.91-2.41,3.62-2.41,1.11,0,2.42.27,2.42,1.26,0,.57-.44.96-.97.96-.46,0-.91-.27-.91-.81.29-.08.53-.35.53-.66,0-.42-.44-.68-1.09-.68-.72,0-1.6.32-1.6,1.03,0,1.64,3.99,1.16,3.99,3.39,0,1.79-2.15,2.55-3.87,2.55-1.24,0-2.68-.38-2.68-1.43Z"/>
      <path class="cls-1" d="M321.64,7.57c0-2.26,1.74-4.24,4.22-4.24,1.38,0,2.55.42,2.55,1.45s-1.44,1.88-4.2,1.38l.02-.07c1.48.15,2.25-1,2.25-1.84,0-.45-.19-.84-.62-.84-1.1,0-1.82,1.79-1.82,3.21s.67,2.24,1.81,2.26c.69,0,1.57-.24,2.17-1.06l.05.03c-.88,1.61-2.29,2.54-3.8,2.54s-2.64-1.04-2.64-2.81Z"/>
      <path class="cls-1" d="M329.52,12.12c.91-.23,1.48-.79,1.48-1.45,0-.54-.4-1.12-1.28-1.53.14-.88.88-1.5,1.66-1.5.71,0,1.22.49,1.22,1.22,0,1.3-1.44,2.91-3.09,3.32v-.07Z"/>
      <path class="cls-1" d="M338.96,8.27l.69-3.87c.09-.51-.11-.57-.55-.48v-.03c.45-.28,1.36-.53,1.99-.53.78,0,1,.32.85,1.16l-.52,2.94c-.29,1.64-.33,2.57.25,2.79v.03c-.34.07-.65.09-.96.09-1.1,0-2.04-.44-1.74-2.09ZM340.23,2.82c.27-.44.4-1.43,0-1.92.31-.57.91-.9,1.44-.9.49,0,1.08.26,1.08.99,0,1.01-1.17,1.91-2.51,1.86l-.02-.03Z"/>
      <path class="cls-1" d="M343.58,8.27l1.18-7.23c.08-.51-.12-.57-.55-.48v-.03c.46-.28,1.37-.53,1.99-.53.74,0,1.01.28.86,1.16l-1.07,6.29c-.28,1.64-.28,2.57.29,2.79v.03c-.34.07-.65.09-.96.09-1.11,0-2.02-.44-1.74-2.09Z"/>
      <path class="cls-1" d="M349.92,11.79c0-.81.6-1.38,1.35-1.38.62,0,1.17.4,1.18,1.21-.52.12-.83.46-.83.9,0,.31.21.57.6.57.64,0,.98-.5.98-1.13,0-1.12-1.18-1.37-1-2.51l.94-5.94h-.71v-.08h.73c.29-1.87.76-3.43,2.65-3.43,1.3,0,1.9.71,1.9,1.52s-.57,1.44-1.39,1.44c-.64,0-1.16-.42-1.14-1.23.56-.1.86-.42.86-.9,0-.39-.2-.65-.68-.65-.77,0-1.24.64-1.24,1.29,0,1.11,1.07,1.31,1.2,1.96h1.09v.08h-.91l-1,6.34c-.25,1.57-.95,3.46-2.82,3.46-1.13,0-1.75-.73-1.75-1.52Z"/>
      <path class="cls-1" d="M364.06,6.28c0,2.16-1.94,4.1-4.26,4.1-1.86,0-3.15-1.23-3.15-2.95,0-2.24,1.92-4.1,4.25-4.1,1.87,0,3.16,1.23,3.16,2.95ZM361.69,4.91c0-.84-.16-1.5-.79-1.5-1.43,0-1.87,4.11-1.87,5.42,0,.83.18,1.48.78,1.48,1.44,0,1.88-3.93,1.88-5.39Z"/>
      <path class="cls-1" d="M372.39,7.44c-.27,1.64-.31,2.58.26,2.8v.03c-.34.07-.65.09-.96.09-1.1,0-2-.44-1.74-2.09l.54-3.37c.1-.64.05-.92-.27-.92-.71,0-1.57,1.57-2.05,3.51-.22.9-.58,2.53-.14,2.75v.03c-.46.07-.82.1-1.13.1-1.03,0-1.5-.44-1.21-2.04l.7-3.94c.09-.51-.12-.57-.55-.48v-.03c.46-.28,1.37-.53,1.99-.53.74,0,1.05.29.86,1.16l-.64,2.94h.04c.87-3.31,2.09-4.12,3.26-4.12,1.62,0,1.52,1.37,1.37,2.26l-.31,1.85Z"/>
      <path class="cls-1" d="M375.22,3.51h-.58v-.08c1.88,0,2.95-.61,3.28-2.46h.08l-.42,2.46h.91v.08h-.92l-.66,3.99c-.3,1.83-.3,2.52.4,2.74v.03c-.47.07-.78.09-1.09.09-1.11,0-2-.44-1.74-2.09l.73-4.76Z"/>
      <path class="cls-1" d="M383.6,11.41c-.65,0-1.11.26-1.48.68l-.05-.04c1.26-1.43,1.63-1.94,1.85-3.47l.43-2.96c.46-3.17,3.89-5.62,5.53-5.62.91,0,1.3.57,1.3,1.11,0,.79-.62,1.21-1.21,1.21-.39,0-.82-.2-.92-.65.34-.13.5-.42.5-.7,0-.33-.22-.63-.61-.63-.95,0-1.42,1.89-1.57,2.76l-.66,4.15c-.4,2.5-2.21,2.12-4.13,4.36h.01c1.12-1.03,2.05-1.65,3.18-1.65,2.68,0,5.59,1.92,7.83,1.92.56,0,1.05-.16,1.36-.57l.03.02c-.65,1.96-1.99,2.59-3.37,2.59-2.77,0-6.24-2.5-8.02-2.5Z"/>
      <path class="cls-1" d="M390.81,8.11l.61-3.72c.08-.51-.12-.57-.55-.48v-.03c.45-.28,1.36-.53,1.99-.53s.9.19.9.74c0,.67-.76,4.29-.78,5.06,0,.38.14.57.4.57.71,0,1.48-1.57,1.96-3.51.22-.9.58-2.53.14-2.75v-.03c.46-.07.82-.1,1.13-.1,1.03,0,1.5.43,1.21,2.04l-.38,2.07c-.21,1.12-.31,2.58.26,2.8v.03c-.34.07-.65.09-.96.09-1.09,0-2.06-.46-1.71-2.09l.43-2.02h-.04c-.87,3.33-1.98,4.12-3.15,4.12-1.62,0-1.62-1.37-1.48-2.26Z"/>
      <path class="cls-1" d="M399.29,8.94c0-.55.47-1.08,1.12-1.08.46,0,.96.29.94.87-.33.09-.56.44-.56.81s.27.75,1.22.75c.62,0,1.9-.17,1.9-1.03,0-1.6-4.06-1.31-4.06-3.54,0-1.6,1.91-2.41,3.62-2.41,1.11,0,2.42.27,2.42,1.26,0,.57-.44.96-.97.96-.46,0-.91-.27-.91-.81.29-.08.53-.35.53-.66,0-.42-.44-.68-1.09-.68-.72,0-1.6.32-1.6,1.03,0,1.64,3.99,1.16,3.99,3.39,0,1.79-2.15,2.55-3.87,2.55-1.24,0-2.68-.38-2.68-1.43Z"/>
      <path class="cls-1" d="M408.36,3.51h-.58v-.08c1.88,0,2.95-.61,3.28-2.46h.08l-.42,2.46h.91v.08h-.92l-.66,3.99c-.3,1.83-.3,2.52.4,2.74v.03c-.47.07-.78.09-1.09.09-1.1,0-2-.44-1.74-2.09l.73-4.76Z"/>
      <path class="cls-1" d="M415.97,8.94c0-.55.47-1.08,1.12-1.08.46,0,.96.29.94.87-.33.09-.56.44-.56.81s.27.75,1.22.75c.62,0,1.9-.17,1.9-1.03,0-1.6-4.06-1.31-4.06-3.54,0-1.6,1.91-2.41,3.62-2.41,1.11,0,2.42.27,2.42,1.26,0,.57-.44.96-.97.96-.46,0-.91-.27-.91-.81.29-.08.53-.35.53-.66,0-.42-.44-.68-1.09-.68-.72,0-1.6.32-1.6,1.03,0,1.64,3.99,1.16,3.99,3.39,0,1.79-2.15,2.55-3.87,2.55-1.24,0-2.68-.38-2.68-1.43Z"/>
      <path class="cls-1" d="M424.38,8.27l.69-3.87c.09-.51-.11-.57-.55-.48v-.03c.46-.28,1.37-.53,1.99-.53.78,0,1,.32.85,1.16l-.52,2.94c-.29,1.64-.33,2.57.25,2.79v.03c-.34.07-.65.09-.96.09-1.1,0-2.04-.44-1.74-2.09ZM425.65,2.82c.27-.44.4-1.43,0-1.92.31-.57.91-.9,1.44-.9.49,0,1.08.26,1.08.99,0,1.01-1.17,1.91-2.51,1.86l-.02-.03Z"/>
      <path class="cls-1" d="M432.68,8.94c0-.55.47-1.08,1.12-1.08.46,0,.96.29.94.87-.33.09-.56.44-.56.81s.27.75,1.22.75c.62,0,1.9-.17,1.9-1.03,0-1.6-4.06-1.31-4.06-3.54,0-1.6,1.91-2.41,3.62-2.41,1.11,0,2.42.27,2.42,1.26,0,.57-.44.96-.97.96-.46,0-.91-.27-.91-.81.29-.08.53-.35.53-.66,0-.42-.44-.68-1.09-.68-.72,0-1.6.32-1.6,1.03,0,1.64,3.99,1.16,3.99,3.39,0,1.79-2.15,2.55-3.87,2.55-1.24,0-2.68-.38-2.68-1.43Z"/>
      <path class="cls-1" d="M447.79,7.44c-.27,1.64-.31,2.58.26,2.8v.03c-.34.07-.65.09-.96.09-1.1,0-2-.44-1.74-2.09l.54-3.37c.1-.64.05-.92-.27-.92-.71,0-1.57,1.57-2.05,3.51-.22.9-.58,2.53-.14,2.75v.03c-.46.07-.82.1-1.13.1-1.03,0-1.5-.44-1.21-2.04l.7-3.94c.09-.51-.12-.57-.55-.48v-.03c.46-.28,1.37-.53,1.99-.53.74,0,1.05.29.86,1.16l-.64,2.94h.04c.87-3.31,2.09-4.12,3.26-4.12,1.62,0,1.52,1.37,1.37,2.26l-.31,1.85Z"/>
      <path class="cls-1" d="M457.21,6.28c0,2.16-1.94,4.1-4.26,4.1-1.86,0-3.15-1.23-3.15-2.95,0-2.24,1.92-4.1,4.25-4.1,1.87,0,3.16,1.23,3.16,2.95ZM454.84,4.91c0-.84-.16-1.5-.79-1.5-1.43,0-1.87,4.11-1.87,5.42,0,.83.18,1.48.78,1.48,1.44,0,1.88-3.93,1.88-5.39Z"/>
      <path class="cls-1" d="M458.62,7.97c0-2.41,1.85-4.69,4.93-4.63v.05c-1.84-.02-2.57,3.34-2.57,5.29,0,.58.11,1.08.49,1.08.75,0,1.65-2.13,1.96-4.08l.72-4.65c.08-.51-.12-.57-.55-.48v-.03c.46-.28,1.35-.53,1.98-.53.74,0,1.03.27.88,1.16l-1.03,6.28c-.18,1.12-.31,2.58.26,2.8v.03c-.34.07-.65.09-.96.09-1.09,0-2.04-.46-1.7-2.09l.42-2h-.04c-.79,3.23-1.77,4.11-2.94,4.11-1.37,0-1.85-1.22-1.85-2.41Z"/>
      <path class="cls-1" d="M474.25,7.44c-.29,1.64-.31,2.58.26,2.8v.03c-.34.07-.65.09-.96.09-1.09,0-2.05-.46-1.7-2.09l.43-2h-.04c-.81,3.23-1.77,4.11-2.94,4.11-1.37,0-1.85-1.22-1.85-2.41,0-2.41,2.07-4.64,4.41-4.64.75,0,1.26.53,2.01.53.33,0,.77-.12,1.07-.46l-.69,4.03ZM469.8,8.68c0,.58.11,1.08.49,1.08.75,0,1.62-2.11,1.98-4.06l.14-.78c.13-.7.2-1.52-.49-1.52-1.24,0-2.12,3.33-2.12,5.28Z"/>
      <path class="cls-1" d="M478.14,11.79c0-.81.6-1.38,1.35-1.38.62,0,1.17.4,1.18,1.21-.52.12-.83.46-.83.9,0,.31.21.57.6.57.64,0,.98-.5.98-1.13,0-1.12-1.18-1.37-1-2.51l.94-5.94h-.71v-.08h.73c.29-1.87.73-3.43,2.72-3.43,1.18,0,2.34.79,2.24,2.31-.05.91-.56,1.47-1.3,1.55.47-2.67-.25-3.67-1.37-3.67-.85,0-1.31.61-1.31,1.29,0,1.11,1.05,1.3,1.18,1.96h.86v.08h-.68l-1,6.34c-.25,1.57-.95,3.46-2.82,3.46-1.13,0-1.75-.73-1.75-1.52Z"/>
      <path class="cls-1" d="M485.33,8.27l1.18-7.23c.08-.51-.12-.57-.55-.48v-.03c.46-.28,1.37-.53,1.99-.53.74,0,1.01.28.86,1.16l-1.07,6.29c-.28,1.64-.28,2.57.29,2.79v.03c-.34.07-.65.09-.96.09-1.11,0-2.02-.44-1.74-2.09Z"/>
      <path class="cls-1" d="M490.13,8.11l.61-3.72c.08-.51-.12-.57-.55-.48v-.03c.46-.28,1.37-.53,1.99-.53s.9.19.9.74c0,.67-.76,4.29-.78,5.06,0,.38.14.57.4.57.71,0,1.48-1.57,1.96-3.51.22-.9.58-2.53.14-2.75v-.03c.46-.07.82-.1,1.13-.1,1.03,0,1.5.43,1.21,2.04l-.38,2.07c-.21,1.12-.31,2.58.26,2.8v.03c-.34.07-.65.09-.96.09-1.09,0-2.06-.46-1.71-2.09l.43-2.02h-.04c-.87,3.33-1.98,4.12-3.15,4.12-1.62,0-1.62-1.37-1.48-2.26Z"/>
      <path class="cls-1" d="M499.05,8.27l.69-3.87c.09-.51-.11-.57-.55-.48v-.03c.46-.28,1.37-.53,1.99-.53.78,0,1,.32.85,1.16l-.52,2.94c-.29,1.64-.33,2.57.25,2.79v.03c-.34.07-.65.09-.96.09-1.1,0-2.04-.44-1.74-2.09ZM500.32,2.82c.27-.44.4-1.43,0-1.92.31-.57.91-.9,1.44-.9.49,0,1.08.26,1.08.99,0,1.01-1.17,1.91-2.51,1.86l-.02-.03Z"/>
      <path class="cls-1" d="M503.53,7.97c0-2.41,1.85-4.69,4.93-4.63v.05c-1.84-.02-2.57,3.34-2.57,5.29,0,.58.11,1.08.49,1.08.75,0,1.65-2.13,1.96-4.08l.72-4.65c.08-.51-.12-.57-.55-.48v-.03c.46-.28,1.35-.53,1.98-.53.74,0,1.03.27.88,1.16l-1.03,6.28c-.18,1.12-.31,2.58.26,2.8v.03c-.34.07-.65.09-.96.09-1.09,0-2.04-.46-1.7-2.09l.42-2h-.04c-.79,3.23-1.77,4.11-2.94,4.11-1.37,0-1.85-1.22-1.85-2.41Z"/>
      <path class="cls-1" d="M519.86,6.28c0,2.16-1.94,4.1-4.26,4.1-1.86,0-3.15-1.23-3.15-2.95,0-2.24,1.92-4.1,4.25-4.1,1.87,0,3.16,1.23,3.16,2.95ZM517.49,4.91c0-.84-.16-1.5-.79-1.5-1.43,0-1.87,4.11-1.87,5.42,0,.83.18,1.48.78,1.48,1.44,0,1.88-3.93,1.88-5.39Z"/>
      <path class="cls-1" d="M527.75,6.62c0,1.46.67,2.24,1.81,2.26.69,0,1.57-.24,2.17-1.06l.05.03c-.88,1.61-2.29,2.54-3.8,2.54s-2.64-1.04-2.64-2.81c0-2.26,1.74-4.24,4.22-4.24,1.51,0,2.51.61,2.51,1.66,0,.81-.6,1.38-1.34,1.38-.55,0-1.12-.34-1.07-1.18.25-.1.65-.42.65-.96,0-.51-.27-.82-.74-.82-1.12,0-1.83,1.79-1.83,3.21Z"/>
      <path class="cls-1" d="M540.91,6.28c0,2.16-1.94,4.1-4.26,4.1-1.86,0-3.15-1.23-3.15-2.95,0-2.24,1.92-4.1,4.25-4.1,1.87,0,3.16,1.23,3.16,2.95ZM538.54,4.91c0-.84-.16-1.5-.79-1.5-1.43,0-1.87,4.11-1.87,5.42,0,.83.18,1.48.78,1.48,1.44,0,1.88-3.93,1.88-5.39Z"/>
      <path class="cls-1" d="M542.53,8.33l.7-3.94c.09-.51-.12-.57-.55-.48v-.03c.45-.28,1.36-.53,1.99-.53.74,0,1.05.29.86,1.16l-.64,2.94h.04c.87-3.31,2.02-4.12,3.13-4.12,1.62,0,1.54,1.33,1.34,2.22l-.42,1.9h.04c.87-3.31,2.02-4.12,3.13-4.12,1.62,0,1.52,1.37,1.37,2.26l-.31,1.85c-.27,1.64-.31,2.58.26,2.8v.03c-.34.07-.65.09-.96.09-1.1,0-2-.44-1.74-2.09l.54-3.37c.1-.64.05-.92-.27-.92-.6,0-1.44,1.57-1.92,3.51-.22.9-.58,2.53-.14,2.75v.03c-.45.07-.82.1-1.13.1-1.03,0-1.48-.44-1.21-2.04l.58-3.43c.11-.64.05-.92-.27-.92-.6,0-1.44,1.57-1.92,3.51-.22.9-.58,2.53-.14,2.75v.03c-.46.07-.82.1-1.13.1-1.03,0-1.5-.44-1.21-2.04Z"/>
      <path class="cls-1" d="M555.2,7.57c0-2.26,1.74-4.24,4.22-4.24,1.38,0,2.55.42,2.55,1.45s-1.44,1.88-4.2,1.38l.02-.07c1.48.15,2.25-1,2.25-1.84,0-.45-.19-.84-.62-.84-1.1,0-1.82,1.79-1.82,3.21s.67,2.24,1.81,2.26c.69,0,1.57-.24,2.17-1.06l.05.03c-.88,1.61-2.29,2.54-3.8,2.54s-2.64-1.04-2.64-2.81Z"/>
      <path class="cls-1" d="M567.61,8.11l.61-3.72c.08-.51-.12-.57-.55-.48v-.03c.45-.28,1.36-.53,1.99-.53s.9.19.9.74c0,.67-.76,4.29-.78,5.06,0,.38.14.57.4.57.71,0,1.48-1.57,1.96-3.51.22-.9.58-2.53.14-2.75v-.03c.46-.07.82-.1,1.13-.1,1.03,0,1.5.43,1.21,2.04l-.38,2.07c-.21,1.12-.31,2.58.26,2.8v.03c-.34.07-.65.09-.96.09-1.09,0-2.06-.46-1.71-2.09l.43-2.02h-.04c-.87,3.33-1.98,4.12-3.15,4.12-1.62,0-1.62-1.37-1.48-2.26Z"/>
      <path class="cls-1" d="M583.22,7.44c-.27,1.64-.31,2.58.26,2.8v.03c-.34.07-.65.09-.96.09-1.1,0-2-.44-1.74-2.09l.54-3.37c.1-.64.05-.92-.27-.92-.71,0-1.57,1.57-2.05,3.51-.22.9-.58,2.53-.14,2.75v.03c-.46.07-.82.1-1.13.1-1.03,0-1.5-.44-1.21-2.04l.7-3.94c.09-.51-.12-.57-.55-.48v-.03c.45-.28,1.36-.53,1.99-.53.74,0,1.05.29.86,1.16l-.64,2.94h.04c.87-3.31,2.09-4.12,3.26-4.12,1.62,0,1.52,1.37,1.36,2.26l-.31,1.85Z"/>
      <path class="cls-1" d="M596.22,7.44c-.27,1.64-.31,2.58.26,2.8v.03c-.34.07-.65.09-.96.09-1.1,0-2-.44-1.74-2.09l.54-3.37c.1-.64.05-.92-.27-.92-.71,0-1.57,1.57-2.05,3.51-.22.9-.58,2.53-.14,2.75v.03c-.46.07-.82.1-1.13.1-1.03,0-1.5-.44-1.21-2.04l.7-3.94c.09-.51-.12-.57-.55-.48v-.03c.45-.28,1.36-.53,1.99-.53.74,0,1.05.29.86,1.16l-.64,2.94h.04c.87-3.31,2.09-4.12,3.26-4.12,1.62,0,1.52,1.37,1.36,2.26l-.31,1.85Z"/>
      <path class="cls-1" d="M605.06,7.44c-.29,1.64-.31,2.58.26,2.8v.03c-.34.07-.65.09-.96.09-1.09,0-2.05-.46-1.7-2.09l.43-2h-.04c-.81,3.23-1.77,4.11-2.94,4.11-1.37,0-1.85-1.22-1.85-2.41,0-2.41,2.07-4.64,4.41-4.64.75,0,1.26.53,2.01.53.33,0,.77-.12,1.07-.46l-.69,4.03ZM600.61,8.68c0,.58.11,1.08.49,1.08.75,0,1.62-2.11,1.98-4.06l.14-.78c.13-.7.2-1.52-.49-1.52-1.24,0-2.12,3.33-2.12,5.28Z"/>
      <path class="cls-1" d="M607.1,8.94c0-.55.47-1.08,1.12-1.08.46,0,.96.29.94.87-.33.09-.56.44-.56.81s.27.75,1.22.75c.62,0,1.9-.17,1.9-1.03,0-1.6-4.06-1.31-4.06-3.54,0-1.6,1.91-2.41,3.62-2.41,1.11,0,2.42.27,2.42,1.26,0,.57-.44.96-.97.96-.46,0-.91-.27-.91-.81.29-.08.53-.35.53-.66,0-.42-.44-.68-1.09-.68-.72,0-1.6.32-1.6,1.03,0,1.64,3.99,1.16,3.99,3.39,0,1.79-2.15,2.55-3.87,2.55-1.24,0-2.68-.38-2.68-1.43Z"/>
      <path class="cls-1" d="M616.17,3.51h-.58v-.08c1.88,0,2.95-.61,3.28-2.46h.08l-.42,2.46h.91v.08h-.92l-.66,3.99c-.3,1.83-.3,2.52.4,2.74v.03c-.47.07-.78.09-1.09.09-1.1,0-2-.44-1.74-2.09l.73-4.76Z"/>
      <path class="cls-1" d="M620.18,8.33l.7-3.94c.09-.51-.12-.57-.55-.48v-.03c.46-.28,1.37-.53,1.99-.53.74,0,1.05.29.86,1.16l-.64,2.94h.04c.87-3.3,1.76-4.17,3.04-4.17,1.18,0,1.64.83,1.64,1.57,0,.99-.68,1.72-1.61,1.72-.74,0-1.27-.46-1.26-1.21.49-.07.92-.44.92-.98,0-.43-.21-.64-.51-.64-.81,0-1.57,1.5-2.13,3.74-.22.9-.58,2.53-.14,2.75v.03c-.46.07-.82.1-1.13.1-1.03,0-1.5-.44-1.21-2.04Z"/>
      <path class="cls-1" d="M635.64,6.28c0,2.16-1.94,4.1-4.26,4.1-1.86,0-3.15-1.23-3.15-2.95,0-2.24,1.92-4.1,4.25-4.1,1.87,0,3.16,1.23,3.16,2.95ZM633.26,4.91c0-.84-.16-1.5-.79-1.5-1.43,0-1.87,4.11-1.87,5.42,0,.83.18,1.48.78,1.48,1.44,0,1.88-3.93,1.88-5.39Z"/>
      <path class="cls-1" d="M641.07,7.97c0-2.41,1.85-4.69,4.93-4.63v.05c-1.84-.02-2.57,3.34-2.57,5.29,0,.58.11,1.08.49,1.08.75,0,1.65-2.13,1.96-4.08l.72-4.65c.08-.51-.12-.57-.55-.48v-.03c.46-.28,1.35-.53,1.98-.53.74,0,1.03.27.88,1.16l-1.03,6.28c-.18,1.12-.31,2.58.26,2.8v.03c-.34.07-.65.09-.96.09-1.09,0-2.04-.46-1.7-2.09l.42-2h-.04c-.79,3.23-1.77,4.11-2.94,4.11-1.37,0-1.85-1.22-1.85-2.41Z"/>
      <path class="cls-1" d="M650.14,8.27l.69-3.87c.09-.51-.11-.57-.55-.48v-.03c.46-.28,1.37-.53,1.99-.53.78,0,1,.32.85,1.16l-.52,2.94c-.29,1.64-.33,2.57.25,2.79v.03c-.34.07-.65.09-.96.09-1.1,0-2.04-.44-1.74-2.09ZM651.42,2.82c.27-.44.4-1.43,0-1.92.31-.57.91-.9,1.44-.9.49,0,1.08.26,1.08.99,0,1.01-1.17,1.91-2.51,1.86l-.02-.03Z"/>
      <path class="cls-1" d="M661.12,6.62c0,1.46.67,2.24,1.81,2.26.69,0,1.57-.24,2.17-1.06l.05.03c-.88,1.61-2.29,2.54-3.8,2.54s-2.64-1.04-2.64-2.81c0-2.26,1.74-4.24,4.22-4.24,1.51,0,2.51.61,2.51,1.66,0,.81-.6,1.38-1.34,1.38-.55,0-1.12-.34-1.07-1.18.25-.1.65-.42.65-.96,0-.51-.27-.82-.74-.82-1.12,0-1.83,1.79-1.83,3.21Z"/>
      <path class="cls-1" d="M667.02,8.27l.69-3.87c.09-.51-.11-.57-.55-.48v-.03c.45-.28,1.36-.53,1.99-.53.78,0,1,.32.85,1.16l-.52,2.94c-.29,1.64-.33,2.57.25,2.79v.03c-.34.07-.65.09-.96.09-1.1,0-2.04-.44-1.74-2.09ZM668.29,2.82c.27-.44.4-1.43,0-1.92.31-.57.91-.9,1.44-.9.49,0,1.08.26,1.08.99,0,1.01-1.17,1.91-2.51,1.86l-.02-.03Z"/>
      <path class="cls-1" d="M678.99,6.28c0,2.16-1.94,4.1-4.26,4.1-1.86,0-3.15-1.23-3.15-2.95,0-2.24,1.92-4.1,4.25-4.1,1.87,0,3.16,1.23,3.16,2.95ZM676.62,4.91c0-.84-.16-1.5-.79-1.5-1.43,0-1.87,4.11-1.87,5.42,0,.83.18,1.48.78,1.48,1.44,0,1.88-3.93,1.88-5.39Z"/>
      <path class="cls-1" d="M683.11,6.62c0,1.46.67,2.24,1.81,2.26.69,0,1.57-.24,2.17-1.06l.05.03c-.88,1.61-2.29,2.54-3.8,2.54s-2.64-1.04-2.64-2.81c0-2.26,1.74-4.24,4.22-4.24,1.51,0,2.51.61,2.51,1.66,0,.81-.6,1.38-1.34,1.38-.55,0-1.12-.34-1.07-1.18.25-.1.65-.42.65-.96,0-.51-.27-.82-.74-.82-1.12,0-1.83,1.79-1.83,3.21Z"/>
      <path class="cls-1" d="M691.24,6.62c0,1.46.67,2.24,1.81,2.26.69,0,1.57-.24,2.17-1.06l.05.03c-.88,1.61-2.29,2.54-3.8,2.54s-2.64-1.04-2.64-2.81c0-2.26,1.74-4.24,4.22-4.24,1.51,0,2.51.61,2.51,1.66,0,.81-.6,1.38-1.34,1.38-.55,0-1.12-.34-1.07-1.18.25-.1.65-.42.65-.96,0-.51-.27-.82-.74-.82-1.12,0-1.83,1.79-1.83,3.21Z"/>
      <path class="cls-1" d="M704.39,6.28c0,2.16-1.94,4.1-4.26,4.1-1.86,0-3.15-1.23-3.15-2.95,0-2.24,1.92-4.1,4.25-4.1,1.87,0,3.16,1.23,3.16,2.95ZM702.02,4.91c0-.84-.16-1.5-.79-1.5-1.43,0-1.87,4.11-1.87,5.42,0,.83.18,1.48.78,1.48,1.44,0,1.88-3.93,1.88-5.39Z"/>
      <path class="cls-1" d="M705.86,8.27l1.18-7.23c.08-.51-.12-.57-.55-.48v-.03c.46-.28,1.37-.53,1.99-.53.74,0,1.01.28.86,1.16l-1.07,6.29c-.28,1.64-.28,2.57.29,2.79v.03c-.34.07-.65.09-.96.09-1.11,0-2.02-.44-1.74-2.09Z"/>
      <path class="cls-1" d="M717.14,7.44c-.29,1.64-.31,2.58.26,2.8v.03c-.34.07-.65.09-.96.09-1.09,0-2.05-.46-1.7-2.09l.43-2h-.04c-.81,3.23-1.77,4.11-2.94,4.11-1.37,0-1.85-1.22-1.85-2.41,0-2.41,2.07-4.64,4.41-4.64.75,0,1.26.53,2.01.53.33,0,.77-.12,1.07-.46l-.69,4.03ZM712.69,8.68c0,.58.11,1.08.49,1.08.75,0,1.62-2.11,1.98-4.06l.14-.78c.13-.7.2-1.52-.49-1.52-1.24,0-2.12,3.33-2.12,5.28Z"/>
      <path class="cls-1" d="M719.97,3.51h-.58v-.08c1.88,0,2.95-.61,3.28-2.46h.08l-.42,2.46h.91v.08h-.92l-.66,3.99c-.3,1.83-.3,2.52.4,2.74v.03c-.47.07-.78.09-1.09.09-1.11,0-2-.44-1.74-2.09l.73-4.76Z"/>
      <path class="cls-1" d="M731.12,6.28c0,2.16-1.94,4.1-4.26,4.1-1.86,0-3.15-1.23-3.15-2.95,0-2.24,1.92-4.1,4.25-4.1,1.87,0,3.16,1.23,3.16,2.95ZM728.75,4.91c0-.84-.16-1.5-.79-1.5-1.43,0-1.87,4.11-1.87,5.42,0,.83.18,1.48.78,1.48,1.44,0,1.88-3.93,1.88-5.39Z"/>
      <path class="cls-1" d="M737.44,3.51h-.58v-.08c1.88,0,2.95-.61,3.28-2.46h.08l-.42,2.46h.91v.08h-.92l-.66,3.99c-.3,1.83-.3,2.52.4,2.74v.03c-.47.07-.78.09-1.09.09-1.1,0-2-.44-1.74-2.09l.73-4.76Z"/>
      <path class="cls-1" d="M741.16,7.57c0-2.26,1.74-4.24,4.22-4.24,1.38,0,2.55.42,2.55,1.45s-1.44,1.88-4.2,1.38l.02-.07c1.48.15,2.25-1,2.25-1.84,0-.45-.19-.84-.62-.84-1.1,0-1.82,1.79-1.82,3.21s.67,2.24,1.81,2.26c.69,0,1.57-.24,2.17-1.06l.05.03c-.88,1.61-2.29,2.54-3.8,2.54s-2.64-1.04-2.64-2.81Z"/>
      <path class="cls-1" d="M749.45,8.33l.7-3.94c.09-.51-.12-.57-.55-.48v-.03c.46-.28,1.37-.53,1.99-.53.74,0,1.05.29.86,1.16l-.64,2.94h.04c.87-3.31,2.02-4.12,3.13-4.12,1.62,0,1.54,1.33,1.34,2.22l-.42,1.9h.04c.87-3.31,2.02-4.12,3.13-4.12,1.62,0,1.52,1.37,1.37,2.26l-.31,1.85c-.27,1.64-.31,2.58.26,2.8v.03c-.34.07-.65.09-.96.09-1.1,0-2-.44-1.74-2.09l.54-3.37c.1-.64.05-.92-.27-.92-.6,0-1.44,1.57-1.92,3.51-.22.9-.58,2.53-.14,2.75v.03c-.46.07-.82.1-1.13.1-1.03,0-1.48-.44-1.21-2.04l.58-3.43c.11-.64.05-.92-.27-.92-.6,0-1.44,1.57-1.92,3.51-.22.9-.58,2.53-.14,2.75v.03c-.46.07-.82.1-1.13.1-1.03,0-1.5-.44-1.21-2.04Z"/>
      <path class="cls-1" d="M762.83,4.39c.08-.51-.12-.57-.55-.48v-.03c.46-.28,1.37-.53,1.99-.53.74,0,1.09.3.86,1.16l-.75,2.92h.04c.79-3.23,1.77-4.11,2.94-4.11,1.37,0,1.85,1.22,1.85,2.41,0,2.41-1.85,4.69-4.93,4.63v-.05c1.84.02,2.57-3.34,2.57-5.29,0-.58-.11-1.08-.49-1.08-.75,0-1.64,2.13-1.96,4.08-.6,3.3-.8,4.92-.23,5.14v.05c-1.99.05-2.74-.29-2.47-1.94l1.13-6.88Z"/>
      <path class="cls-1" d="M770.83,7.57c0-2.26,1.74-4.24,4.22-4.24,1.38,0,2.55.42,2.55,1.45s-1.44,1.88-4.2,1.38l.02-.07c1.48.15,2.25-1,2.25-1.84,0-.45-.19-.84-.62-.84-1.1,0-1.82,1.79-1.82,3.21s.67,2.24,1.81,2.26c.69,0,1.57-.24,2.17-1.06l.05.03c-.88,1.61-2.29,2.54-3.8,2.54s-2.64-1.04-2.64-2.81Z"/>
      <path class="cls-1" d="M779.13,8.33l.7-3.94c.09-.51-.12-.57-.55-.48v-.03c.45-.28,1.36-.53,1.99-.53.74,0,1.05.29.86,1.16l-.64,2.94h.04c.87-3.3,1.76-4.17,3.04-4.17,1.18,0,1.64.83,1.64,1.57,0,.99-.68,1.72-1.61,1.72-.74,0-1.27-.46-1.26-1.21.49-.07.92-.44.92-.98,0-.43-.21-.64-.51-.64-.81,0-1.57,1.5-2.13,3.74-.22.9-.58,2.53-.14,2.75v.03c-.46.07-.82.1-1.13.1-1.03,0-1.5-.44-1.21-2.04Z"/>
      <path class="cls-1" d="M793.68,7.44c-.29,1.64-.31,2.58.26,2.8v.03c-.34.07-.65.09-.96.09-1.09,0-2.05-.46-1.7-2.09l.43-2h-.04c-.81,3.23-1.77,4.11-2.94,4.11-1.37,0-1.85-1.22-1.85-2.41,0-2.41,2.07-4.64,4.41-4.64.75,0,1.26.53,2.01.53.33,0,.77-.12,1.07-.46l-.69,4.03ZM789.24,8.68c0,.58.11,1.08.49,1.08.75,0,1.62-2.11,1.98-4.06l.14-.78c.13-.7.2-1.52-.49-1.52-1.24,0-2.12,3.33-2.12,5.28Z"/>
      <path class="cls-1" d="M796.51,3.51h-.58v-.08c1.88,0,2.95-.61,3.28-2.46h.08l-.42,2.46h.91v.08h-.92l-.66,3.99c-.3,1.83-.3,2.52.4,2.74v.03c-.47.07-.78.09-1.09.09-1.1,0-2-.44-1.74-2.09l.73-4.76Z"/>
      <path class="cls-1" d="M807.66,6.28c0,2.16-1.94,4.1-4.26,4.1-1.86,0-3.15-1.23-3.15-2.95,0-2.24,1.92-4.1,4.25-4.1,1.87,0,3.16,1.23,3.16,2.95ZM805.29,4.91c0-.84-.16-1.5-.79-1.5-1.43,0-1.87,4.11-1.87,5.42,0,.83.18,1.48.78,1.48,1.44,0,1.88-3.93,1.88-5.39Z"/>
      <path class="cls-1" d="M808.88,12.12c.91-.23,1.48-.79,1.48-1.45,0-.54-.4-1.12-1.28-1.53.14-.88.88-1.5,1.66-1.5.71,0,1.22.49,1.22,1.22,0,1.3-1.44,2.91-3.09,3.32v-.07Z"/>
      <path class="cls-1" d="M818.39,8.26l.6-3.84c.08-.51-.12-.57-.55-.48v-.03c.45-.28,1.36-.53,1.99-.53.74,0,1.04.29.9,1.16l-.59,3.58c-.21,1.25-.25,1.81.36,1.81,1.41,0,3.45-2.3,3.45-3.89,0-.64-.34-.88-.77-.88-.36,0-.68.17-.83.55-.61-.08-.97-.6-.97-1.17,0-.69.61-1.21,1.34-1.21.78,0,1.47.61,1.47,1.94,0,2.65-2.52,5.11-4.86,5.11-1.22,0-1.77-.65-1.53-2.11Z"/>
      <path class="cls-1" d="M826.35,7.57c0-2.26,1.74-4.24,4.22-4.24,1.38,0,2.55.42,2.55,1.45s-1.44,1.88-4.2,1.38l.02-.07c1.48.15,2.25-1,2.25-1.84,0-.45-.19-.84-.62-.84-1.1,0-1.82,1.79-1.82,3.21s.67,2.24,1.81,2.26c.69,0,1.57-.24,2.17-1.06l.05.03c-.88,1.61-2.29,2.54-3.8,2.54s-2.64-1.04-2.64-2.81Z"/>
      <path class="cls-1" d="M834.22,8.94c0-.55.47-1.08,1.12-1.08.46,0,.96.29.94.87-.33.09-.56.44-.56.81s.27.75,1.22.75c.62,0,1.9-.17,1.9-1.03,0-1.6-4.06-1.31-4.06-3.54,0-1.6,1.91-2.41,3.62-2.41,1.11,0,2.42.27,2.42,1.26,0,.57-.44.96-.97.96-.46,0-.91-.27-.91-.81.29-.08.53-.35.53-.66,0-.42-.44-.68-1.09-.68-.72,0-1.6.32-1.6,1.03,0,1.64,3.99,1.16,3.99,3.39,0,1.79-2.15,2.55-3.87,2.55-1.24,0-2.68-.38-2.68-1.43Z"/>
      <path class="cls-1" d="M843.29,3.51h-.58v-.08c1.88,0,2.95-.61,3.28-2.46h.08l-.42,2.46h.91v.08h-.92l-.66,3.99c-.3,1.83-.3,2.52.4,2.74v.03c-.47.07-.78.09-1.09.09-1.1,0-2-.44-1.74-2.09l.73-4.76Z"/>
      <path class="cls-1" d="M847,7.57c0-2.26,1.74-4.24,4.22-4.24,1.38,0,2.55.42,2.55,1.45s-1.44,1.88-4.2,1.38l.02-.07c1.48.15,2.25-1,2.25-1.84,0-.45-.19-.84-.62-.84-1.1,0-1.82,1.79-1.82,3.21s.67,2.24,1.81,2.26c.69,0,1.57-.24,2.17-1.06l.05.03c-.88,1.61-2.29,2.54-3.8,2.54s-2.64-1.04-2.64-2.81Z"/>
      <path class="cls-1" d="M862,7.44c-.27,1.64-.31,2.58.26,2.8v.03c-.34.07-.65.09-.96.09-1.1,0-2-.44-1.74-2.09l.54-3.37c.1-.64.05-.92-.27-.92-.71,0-1.57,1.57-2.05,3.51-.22.9-.58,2.53-.14,2.75v.03c-.46.07-.82.1-1.13.1-1.03,0-1.5-.44-1.21-2.04l.7-3.94c.09-.51-.12-.57-.55-.48v-.03c.46-.28,1.37-.53,1.99-.53.74,0,1.05.29.86,1.16l-.64,2.94h.04c.87-3.31,2.09-4.12,3.26-4.12,1.62,0,1.52,1.37,1.37,2.26l-.31,1.85Z"/>
      <path class="cls-1" d="M864.04,7.97c0-2.41,1.85-4.69,4.93-4.63v.05c-1.84-.02-2.57,3.34-2.57,5.29,0,.58.11,1.08.49,1.08.75,0,1.65-2.13,1.96-4.08l.72-4.65c.08-.51-.12-.57-.55-.48v-.03c.46-.28,1.35-.53,1.98-.53.74,0,1.03.27.88,1.16l-1.03,6.28c-.18,1.12-.31,2.58.26,2.8v.03c-.34.07-.65.09-.96.09-1.09,0-2.04-.46-1.7-2.09l.42-2h-.04c-.79,3.23-1.77,4.11-2.94,4.11-1.37,0-1.85-1.22-1.85-2.41Z"/>
      <path class="cls-1" d="M880.37,6.28c0,2.16-1.94,4.1-4.26,4.1-1.86,0-3.15-1.23-3.15-2.95,0-2.24,1.92-4.1,4.25-4.1,1.87,0,3.16,1.23,3.16,2.95ZM878,4.91c0-.84-.16-1.5-.79-1.5-1.43,0-1.87,4.11-1.87,5.42,0,.83.18,1.48.78,1.48,1.44,0,1.88-3.93,1.88-5.39Z"/>
      <path class="cls-1" d="M886.08,8.27l1.18-7.23c.08-.51-.12-.57-.55-.48v-.03c.46-.28,1.37-.53,1.99-.53.74,0,1.01.28.86,1.16l-1.07,6.29c-.28,1.64-.28,2.57.29,2.79v.03c-.34.07-.65.09-.96.09-1.11,0-2.02-.44-1.74-2.09Z"/>
      <path class="cls-1" d="M892.45,4.56c.1-1.24-.08-2.81-.61-3.39.1-.62.66-1.17,1.35-1.17s1.09.55.99,1.17c-.7.58-1.39,2.14-1.68,3.39h-.05Z"/>
      <path class="cls-1" d="M895.21,8.27l.69-3.87c.09-.51-.11-.57-.55-.48v-.03c.45-.28,1.36-.53,1.99-.53.78,0,1,.32.85,1.16l-.52,2.94c-.29,1.64-.33,2.57.25,2.79v.03c-.34.07-.65.09-.96.09-1.1,0-2.04-.44-1.74-2.09ZM896.49,2.82c.27-.44.4-1.43,0-1.92.31-.57.91-.9,1.44-.9.49,0,1.08.26,1.08.99,0,1.01-1.17,1.91-2.51,1.86l-.02-.03Z"/>
      <path class="cls-1" d="M899.7,7.97c0-2.41,1.85-4.69,4.93-4.63v.05c-1.84-.02-2.57,3.34-2.57,5.29,0,.58.11,1.08.49,1.08.75,0,1.65-2.13,1.96-4.08l.72-4.65c.08-.51-.12-.57-.55-.48v-.03c.46-.28,1.35-.53,1.98-.53.74,0,1.03.27.88,1.16l-1.03,6.28c-.18,1.12-.31,2.58.26,2.8v.03c-.34.07-.65.09-.96.09-1.09,0-2.04-.46-1.7-2.09l.42-2h-.04c-.79,3.23-1.77,4.11-2.94,4.11-1.37,0-1.85-1.22-1.85-2.41Z"/>
      <path class="cls-1" d="M908.59,7.57c0-2.26,1.74-4.24,4.22-4.24,1.38,0,2.55.42,2.55,1.45s-1.44,1.88-4.2,1.38l.02-.07c1.48.15,2.25-1,2.25-1.84,0-.45-.19-.84-.62-.84-1.1,0-1.82,1.79-1.82,3.21s.67,2.24,1.81,2.26c.69,0,1.57-.24,2.17-1.06l.05.03c-.88,1.61-2.29,2.54-3.8,2.54s-2.64-1.04-2.64-2.81Z"/>
      <path class="cls-1" d="M923.59,7.44c-.27,1.64-.31,2.58.26,2.8v.03c-.34.07-.65.09-.96.09-1.1,0-2-.44-1.74-2.09l.54-3.37c.1-.64.05-.92-.27-.92-.71,0-1.57,1.57-2.05,3.51-.22.9-.58,2.53-.14,2.75v.03c-.46.07-.82.1-1.13.1-1.03,0-1.5-.44-1.21-2.04l.7-3.94c.09-.51-.12-.57-.55-.48v-.03c.45-.28,1.36-.53,1.99-.53.74,0,1.05.29.86,1.16l-.64,2.94h.04c.87-3.31,2.09-4.12,3.26-4.12,1.62,0,1.52,1.37,1.36,2.26l-.31,1.85Z"/>
      <path class="cls-1" d="M926.42,3.51h-.58v-.08c1.88,0,2.95-.61,3.28-2.46h.08l-.42,2.46h.91v.08h-.92l-.66,3.99c-.3,1.83-.3,2.52.4,2.74v.03c-.47.07-.78.09-1.09.09-1.11,0-2-.44-1.74-2.09l.73-4.76Z"/>
      <path class="cls-1" d="M930.44,8.27l.69-3.87c.09-.51-.11-.57-.55-.48v-.03c.46-.28,1.37-.53,1.99-.53.78,0,1,.32.85,1.16l-.52,2.94c-.29,1.64-.33,2.57.25,2.79v.03c-.34.07-.65.09-.96.09-1.1,0-2.04-.44-1.74-2.09ZM931.72,2.82c.27-.44.4-1.43,0-1.92.31-.57.91-.9,1.44-.9.49,0,1.08.26,1.08.99,0,1.01-1.17,1.91-2.51,1.86l-.02-.03Z"/>
      <path class="cls-1" d="M935.69,3.51h-.58v-.08c1.88,0,2.95-.61,3.28-2.46h.08l-.42,2.46h.91v.08h-.92l-.66,3.99c-.3,1.83-.3,2.52.4,2.74v.03c-.47.07-.78.09-1.09.09-1.1,0-2-.44-1.74-2.09l.73-4.76Z"/>
      <path class="cls-1" d="M946.27,7.44c-.29,1.64-.31,2.58.26,2.8v.03c-.34.07-.65.09-.96.09-1.09,0-2.05-.46-1.7-2.09l.43-2h-.04c-.81,3.23-1.77,4.11-2.94,4.11-1.37,0-1.85-1.22-1.85-2.41,0-2.41,2.07-4.64,4.41-4.64.75,0,1.26.53,2.01.53.33,0,.77-.12,1.07-.46l-.69,4.03ZM941.82,8.68c0,.58.11,1.08.49,1.08.75,0,1.62-2.11,1.98-4.06l.14-.78c.13-.7.2-1.52-.49-1.52-1.24,0-2.12,3.33-2.12,5.28ZM944.55,2.83c-1.51-1.11-2.41-1.25-2.41-1.75,0-.25.25-.52.52-.52.56,0,.65.79,1.92,2.22l-.04.05Z"/>
      <path class="cls-1" d="M952.67,8.26l.6-3.84c.08-.51-.12-.57-.55-.48v-.03c.45-.28,1.36-.53,1.99-.53.74,0,1.04.29.9,1.16l-.59,3.58c-.21,1.25-.25,1.81.36,1.81,1.41,0,3.45-2.3,3.45-3.89,0-.64-.34-.88-.77-.88-.36,0-.68.17-.83.55-.61-.08-.97-.6-.97-1.17,0-.69.61-1.21,1.34-1.21.78,0,1.47.61,1.47,1.94,0,2.65-2.52,5.11-4.86,5.11-1.22,0-1.77-.65-1.53-2.11Z"/>
      <path class="cls-1" d="M960.42,8.27l.69-3.87c.09-.51-.11-.57-.55-.48v-.03c.46-.28,1.37-.53,1.99-.53.78,0,1,.32.85,1.16l-.52,2.94c-.29,1.64-.33,2.57.25,2.79v.03c-.34.07-.65.09-.96.09-1.1,0-2.04-.44-1.74-2.09ZM961.69,2.82c.27-.44.4-1.43,0-1.92.31-.57.91-.9,1.44-.9.49,0,1.08.26,1.08.99,0,1.01-1.17,1.91-2.51,1.86l-.02-.03Z"/>
      <path class="cls-1" d="M964.7,8.94c0-.55.47-1.08,1.12-1.08.46,0,.96.29.94.87-.33.09-.56.44-.56.81s.27.75,1.22.75c.62,0,1.9-.17,1.9-1.03,0-1.6-4.06-1.31-4.06-3.54,0-1.6,1.91-2.41,3.62-2.41,1.11,0,2.42.27,2.42,1.26,0,.57-.44.96-.97.96-.46,0-.91-.27-.91-.81.29-.08.53-.35.53-.66,0-.42-.44-.68-1.09-.68-.72,0-1.6.32-1.6,1.03,0,1.64,3.99,1.16,3.99,3.39,0,1.79-2.15,2.55-3.87,2.55-1.24,0-2.68-.38-2.68-1.43Z"/>
      <path class="cls-1" d="M973.11,8.27l.69-3.87c.09-.51-.11-.57-.55-.48v-.03c.46-.28,1.37-.53,1.99-.53.78,0,1,.32.85,1.16l-.52,2.94c-.29,1.64-.33,2.57.25,2.79v.03c-.34.07-.65.09-.96.09-1.1,0-2.04-.44-1.74-2.09ZM974.38,2.82c.27-.44.4-1.43,0-1.92.31-.57.91-.9,1.44-.9.49,0,1.08.26,1.08.99,0,1.01-1.17,1.91-2.51,1.86l-.02-.03Z"/>
      <path class="cls-1" d="M977.91,8.26l.6-3.84c.08-.51-.12-.57-.55-.48v-.03c.46-.28,1.37-.53,1.99-.53.74,0,1.04.29.9,1.16l-.59,3.58c-.21,1.25-.25,1.81.36,1.81,1.41,0,3.45-2.3,3.45-3.89,0-.64-.34-.88-.77-.88-.36,0-.68.17-.83.55-.61-.08-.97-.6-.97-1.17,0-.69.61-1.21,1.34-1.21.78,0,1.47.61,1.47,1.94,0,2.65-2.52,5.11-4.86,5.11-1.22,0-1.77-.65-1.53-2.11Z"/>
      <path class="cls-1" d="M992.35,7.44c-.29,1.64-.31,2.58.26,2.8v.03c-.34.07-.65.09-.96.09-1.09,0-2.05-.46-1.7-2.09l.43-2h-.04c-.81,3.23-1.77,4.11-2.94,4.11-1.37,0-1.85-1.22-1.85-2.41,0-2.41,2.07-4.64,4.41-4.64.75,0,1.26.53,2.01.53.33,0,.77-.12,1.07-.46l-.69,4.03ZM987.91,8.68c0,.58.11,1.08.49,1.08.75,0,1.62-2.11,1.98-4.06l.14-.78c.13-.7.2-1.52-.49-1.52-1.24,0-2.12,3.33-2.12,5.28Z"/>
      <path class="cls-1" d="M998.43,7.97c0-2.41,1.85-4.69,4.93-4.63v.05c-1.84-.02-2.57,3.34-2.57,5.29,0,.58.11,1.08.49,1.08.75,0,1.65-2.13,1.96-4.08l.72-4.65c.08-.51-.12-.57-.55-.48v-.03c.46-.28,1.35-.53,1.98-.53.74,0,1.03.27.88,1.16l-1.03,6.28c-.18,1.12-.31,2.58.26,2.8v.03c-.34.07-.65.09-.96.09-1.09,0-2.04-.46-1.7-2.09l.42-2h-.04c-.79,3.23-1.77,4.11-2.94,4.11-1.37,0-1.85-1.22-1.85-2.41Z"/>
      <path class="cls-1" d="M1007.5,8.27l.69-3.87c.09-.51-.11-.57-.55-.48v-.03c.45-.28,1.36-.53,1.99-.53.78,0,1,.32.85,1.16l-.52,2.94c-.29,1.64-.33,2.57.25,2.79v.03c-.34.07-.65.09-.96.09-1.1,0-2.04-.44-1.74-2.09ZM1008.78,2.82c.27-.44.4-1.43,0-1.92.31-.57.91-.9,1.44-.9.49,0,1.08.26,1.08.99,0,1.01-1.17,1.91-2.51,1.86l-.02-.03Z"/>
      <path class="cls-1" d="M1016.33,8.11l.61-3.72c.08-.51-.12-.57-.55-.48v-.03c.46-.28,1.37-.53,1.99-.53s.9.19.9.74c0,.67-.76,4.29-.78,5.06,0,.38.14.57.4.57.71,0,1.48-1.57,1.96-3.51.22-.9.58-2.53.14-2.75v-.03c.46-.07.82-.1,1.13-.1,1.03,0,1.5.43,1.21,2.04l-.38,2.07c-.21,1.12-.31,2.58.26,2.8v.03c-.34.07-.65.09-.96.09-1.09,0-2.06-.46-1.71-2.09l.43-2.02h-.04c-.87,3.33-1.98,4.12-3.15,4.12-1.62,0-1.62-1.37-1.48-2.26Z"/>
      <path class="cls-1" d="M1031.95,7.44c-.27,1.64-.31,2.58.26,2.8v.03c-.34.07-.65.09-.96.09-1.1,0-2-.44-1.74-2.09l.54-3.37c.1-.64.05-.92-.27-.92-.71,0-1.57,1.57-2.05,3.51-.22.9-.58,2.53-.14,2.75v.03c-.46.07-.82.1-1.13.1-1.03,0-1.5-.44-1.21-2.04l.7-3.94c.09-.51-.12-.57-.55-.48v-.03c.46-.28,1.37-.53,1.99-.53.74,0,1.05.29.86,1.16l-.64,2.94h.04c.87-3.31,2.09-4.12,3.26-4.12,1.62,0,1.52,1.37,1.37,2.26l-.31,1.85Z"/>
      <path class="cls-1" d="M1034.7,4.56c.1-1.24-.08-2.81-.61-3.39.1-.62.66-1.17,1.35-1.17s1.09.55.99,1.17c-.7.58-1.39,2.14-1.68,3.39h-.05Z"/>
      <path class="cls-1" d="M1042.73,7.44c-.29,1.64-.31,2.58.26,2.8v.03c-.34.07-.65.09-.96.09-1.09,0-2.05-.46-1.7-2.09l.43-2h-.04c-.81,3.23-1.77,4.11-2.94,4.11-1.37,0-1.85-1.22-1.85-2.41,0-2.41,2.07-4.64,4.41-4.64.75,0,1.26.53,2.01.53.33,0,.77-.12,1.07-.46l-.69,4.03ZM1038.28,8.68c0,.58.11,1.08.49,1.08.75,0,1.62-2.11,1.98-4.06l.14-.78c.13-.7.2-1.52-.49-1.52-1.24,0-2.12,3.33-2.12,5.28Z"/>
      <path class="cls-1" d="M1044.84,8.27l1.18-7.23c.08-.51-.12-.57-.55-.48v-.03c.46-.28,1.37-.53,1.99-.53.74,0,1.01.28.86,1.16l-1.07,6.29c-.28,1.64-.28,2.57.29,2.79v.03c-.34.07-.65.09-.96.09-1.11,0-2.02-.44-1.74-2.09Z"/>
      <path class="cls-1" d="M1050.22,3.51h-.58v-.08c1.88,0,2.95-.61,3.28-2.46h.08l-.42,2.46h.91v.08h-.92l-.66,3.99c-.3,1.83-.3,2.52.4,2.74v.03c-.47.07-.78.09-1.09.09-1.1,0-2-.44-1.74-2.09l.73-4.76Z"/>
      <path class="cls-1" d="M1060.8,7.44c-.29,1.64-.31,2.58.26,2.8v.03c-.34.07-.65.09-.96.09-1.09,0-2.05-.46-1.7-2.09l.43-2h-.04c-.81,3.23-1.77,4.11-2.94,4.11-1.37,0-1.85-1.22-1.85-2.41,0-2.41,2.07-4.64,4.41-4.64.75,0,1.26.53,2.01.53.33,0,.77-.12,1.07-.46l-.69,4.03ZM1056.35,8.68c0,.58.11,1.08.49,1.08.75,0,1.62-2.11,1.98-4.06l.14-.78c.13-.7.2-1.52-.49-1.52-1.24,0-2.12,3.33-2.12,5.28Z"/>
      <path class="cls-1" d="M1067.8,4.39c.08-.51-.12-.57-.55-.48v-.03c.46-.28,1.37-.53,1.99-.53.74,0,1.09.3.86,1.16l-.75,2.92h.04c.79-3.23,1.77-4.11,2.94-4.11,1.37,0,1.85,1.22,1.85,2.41,0,2.41-1.85,4.69-4.93,4.63v-.05c1.84.02,2.57-3.34,2.57-5.29,0-.58-.11-1.08-.49-1.08-.75,0-1.64,2.13-1.96,4.08-.6,3.3-.8,4.92-.23,5.14v.05c-1.99.05-2.74-.29-2.47-1.94l1.13-6.88Z"/>
      <path class="cls-1" d="M1082.29,7.44c-.29,1.64-.31,2.58.26,2.8v.03c-.34.07-.65.09-.96.09-1.09,0-2.05-.46-1.7-2.09l.43-2h-.04c-.81,3.23-1.77,4.11-2.94,4.11-1.37,0-1.85-1.22-1.85-2.41,0-2.41,2.07-4.64,4.41-4.64.75,0,1.26.53,2.01.53.33,0,.77-.12,1.07-.46l-.69,4.03ZM1077.84,8.68c0,.58.11,1.08.49,1.08.75,0,1.62-2.11,1.98-4.06l.14-.78c.13-.7.2-1.52-.49-1.52-1.24,0-2.12,3.33-2.12,5.28Z"/>
      <path class="cls-1" d="M1084.33,8.94c0-.55.47-1.08,1.12-1.08.46,0,.96.29.94.87-.33.09-.56.44-.56.81s.27.75,1.22.75c.62,0,1.9-.17,1.9-1.03,0-1.6-4.06-1.31-4.06-3.54,0-1.6,1.91-2.41,3.62-2.41,1.11,0,2.42.27,2.42,1.26,0,.57-.44.96-.97.96-.46,0-.91-.27-.91-.81.29-.08.53-.35.53-.66,0-.42-.44-.68-1.09-.68-.72,0-1.6.32-1.6,1.03,0,1.64,3.99,1.16,3.99,3.39,0,1.79-2.15,2.55-3.87,2.55-1.24,0-2.68-.38-2.68-1.43Z"/>
      <path class="cls-1" d="M1093.4,3.51h-.58v-.08c1.88,0,2.95-.61,3.28-2.46h.08l-.42,2.46h.91v.08h-.92l-.66,3.99c-.3,1.83-.3,2.52.4,2.74v.03c-.47.07-.78.09-1.09.09-1.11,0-2-.44-1.74-2.09l.73-4.76Z"/>
      <path class="cls-1" d="M1097.42,8.27l.69-3.87c.09-.51-.11-.57-.55-.48v-.03c.46-.28,1.37-.53,1.99-.53.78,0,1,.32.85,1.16l-.52,2.94c-.29,1.64-.33,2.57.25,2.79v.03c-.34.07-.65.09-.96.09-1.1,0-2.04-.44-1.74-2.09ZM1098.7,2.82c.27-.44.4-1.43,0-1.92.31-.57.91-.9,1.44-.9.49,0,1.08.26,1.08.99,0,1.01-1.17,1.91-2.51,1.86l-.02-.03Z"/>
      <path class="cls-1" d="M1104.37,6.62c0,1.46.67,2.24,1.81,2.26.69,0,1.57-.24,2.17-1.06l.05.03c-.88,1.61-2.29,2.54-3.8,2.54s-2.64-1.04-2.64-2.81c0-2.26,1.74-4.24,4.22-4.24,1.51,0,2.51.61,2.51,1.66,0,.81-.6,1.38-1.34,1.38-.55,0-1.12-.34-1.07-1.18.25-.1.65-.42.65-.96,0-.51-.27-.82-.74-.82-1.12,0-1.83,1.79-1.83,3.21Z"/>
      <path class="cls-1" d="M1112.49,6.62c0,1.46.67,2.24,1.81,2.26.69,0,1.57-.24,2.17-1.06l.05.03c-.88,1.61-2.29,2.54-3.8,2.54s-2.64-1.04-2.64-2.81c0-2.26,1.74-4.24,4.22-4.24,1.51,0,2.51.61,2.51,1.66,0,.81-.6,1.38-1.34,1.38-.55,0-1.12-.34-1.07-1.18.25-.1.65-.42.65-.96,0-.51-.27-.82-.74-.82-1.12,0-1.83,1.79-1.83,3.21Z"/>
      <path class="cls-1" d="M1118.21,7.57c0-2.26,1.74-4.24,4.22-4.24,1.38,0,2.55.42,2.55,1.45s-1.44,1.88-4.2,1.38l.02-.07c1.48.15,2.25-1,2.25-1.84,0-.45-.19-.84-.62-.84-1.1,0-1.82,1.79-1.82,3.21s.67,2.24,1.81,2.26c.69,0,1.57-.24,2.17-1.06l.05.03c-.88,1.61-2.29,2.54-3.8,2.54s-2.64-1.04-2.64-2.81Z"/>
      <path class="cls-1" d="M1126.5,8.33l.7-3.94c.09-.51-.12-.57-.55-.48v-.03c.46-.28,1.37-.53,1.99-.53.74,0,1.05.29.86,1.16l-.64,2.94h.04c.87-3.3,1.76-4.17,3.04-4.17,1.18,0,1.64.83,1.64,1.57,0,.99-.68,1.72-1.61,1.72-.74,0-1.27-.46-1.26-1.21.49-.07.92-.44.92-.98,0-.43-.21-.64-.51-.64-.81,0-1.57,1.5-2.13,3.74-.22.9-.58,2.53-.14,2.75v.03c-.46.07-.82.1-1.13.1-1.03,0-1.5-.44-1.21-2.04Z"/>
      <path class="cls-1" d="M1134.71,8.27l.69-3.87c.09-.51-.11-.57-.55-.48v-.03c.46-.28,1.37-.53,1.99-.53.78,0,1,.32.85,1.16l-.52,2.94c-.29,1.64-.33,2.57.25,2.79v.03c-.34.07-.65.09-.96.09-1.1,0-2.04-.44-1.74-2.09ZM1135.98,2.82c.27-.44.4-1.43,0-1.92.31-.57.91-.9,1.44-.9.49,0,1.08.26,1.08.99,0,1.01-1.17,1.91-2.51,1.86l-.02-.03Z"/>
      <path class="cls-1" d="M1145.98,7.44c-.29,1.64-.31,2.58.26,2.8v.03c-.34.07-.65.09-.96.09-1.09,0-2.05-.46-1.7-2.09l.43-2h-.04c-.81,3.23-1.77,4.11-2.94,4.11-1.37,0-1.85-1.22-1.85-2.41,0-2.41,2.07-4.64,4.41-4.64.75,0,1.26.53,2.01.53.33,0,.77-.12,1.07-.46l-.69,4.03ZM1141.54,8.68c0,.58.11,1.08.49,1.08.75,0,1.62-2.11,1.98-4.06l.14-.78c.13-.7.2-1.52-.49-1.52-1.24,0-2.12,3.33-2.12,5.28Z"/>
      <path class="cls-1" d="M1154.52,6.62c0,1.46.67,2.24,1.81,2.26.69,0,1.57-.24,2.17-1.06l.05.03c-.88,1.61-2.29,2.54-3.8,2.54s-2.64-1.04-2.64-2.81c0-2.26,1.74-4.24,4.22-4.24,1.51,0,2.51.61,2.51,1.66,0,.81-.6,1.38-1.34,1.38-.55,0-1.12-.34-1.07-1.18.25-.1.65-.42.65-.96,0-.51-.27-.82-.74-.82-1.12,0-1.83,1.79-1.83,3.21Z"/>
      <path class="cls-1" d="M1167.67,6.28c0,2.16-1.94,4.1-4.26,4.1-1.86,0-3.15-1.23-3.15-2.95,0-2.24,1.92-4.1,4.25-4.1,1.87,0,3.16,1.23,3.16,2.95ZM1165.3,4.91c0-.84-.16-1.5-.79-1.5-1.43,0-1.87,4.11-1.87,5.42,0,.83.18,1.48.78,1.48,1.44,0,1.88-3.93,1.88-5.39Z"/>
      <path class="cls-1" d="M1176.01,7.44c-.27,1.64-.31,2.58.26,2.8v.03c-.34.07-.65.09-.96.09-1.1,0-2-.44-1.74-2.09l.54-3.37c.1-.64.05-.92-.27-.92-.71,0-1.57,1.57-2.05,3.51-.22.9-.58,2.53-.14,2.75v.03c-.46.07-.82.1-1.13.1-1.03,0-1.5-.44-1.21-2.04l.7-3.94c.09-.51-.12-.57-.55-.48v-.03c.46-.28,1.37-.53,1.99-.53.74,0,1.05.29.86,1.16l-.64,2.94h.04c.87-3.31,2.09-4.12,3.26-4.12,1.62,0,1.52,1.37,1.37,2.26l-.31,1.85Z"/>
      <path class="cls-1" d="M1182.35,8.27l1.18-7.23c.08-.51-.12-.57-.55-.48v-.03c.46-.28,1.37-.53,1.99-.53.74,0,1.01.28.86,1.16l-1.07,6.29c-.28,1.64-.28,2.57.29,2.79v.03c-.34.07-.65.09-.96.09-1.11,0-2.02-.44-1.74-2.09Z"/>
      <path class="cls-1" d="M1188.72,4.56c.1-1.24-.08-2.81-.61-3.39.1-.62.66-1.17,1.35-1.17s1.09.55.99,1.17c-.7.58-1.39,2.14-1.68,3.39h-.05Z"/>
      <path class="cls-1" d="M1196.75,7.44c-.29,1.64-.31,2.58.26,2.8v.03c-.34.07-.65.09-.96.09-1.09,0-2.05-.46-1.7-2.09l.43-2h-.04c-.81,3.23-1.77,4.11-2.94,4.11-1.37,0-1.85-1.22-1.85-2.41,0-2.41,2.07-4.64,4.41-4.64.75,0,1.26.53,2.01.53.33,0,.77-.12,1.07-.46l-.69,4.03ZM1192.3,8.68c0,.58.11,1.08.49,1.08.75,0,1.62-2.11,1.98-4.06l.14-.78c.13-.7.2-1.52-.49-1.52-1.24,0-2.12,3.33-2.12,5.28Z"/>
      <path class="cls-1" d="M1199.12,8.26l.6-3.84c.08-.51-.12-.57-.55-.48v-.03c.45-.28,1.36-.53,1.99-.53.74,0,1.04.29.9,1.16l-.59,3.58c-.21,1.25-.25,1.81.36,1.81,1.41,0,3.45-2.3,3.45-3.89,0-.64-.34-.88-.77-.88-.36,0-.68.17-.83.55-.61-.08-.97-.6-.97-1.17,0-.69.61-1.21,1.34-1.21.78,0,1.47.61,1.47,1.94,0,2.65-2.52,5.11-4.86,5.11-1.22,0-1.77-.65-1.53-2.11Z"/>
      <path class="cls-1" d="M1207.08,8.26l.6-3.84c.08-.51-.12-.57-.55-.48v-.03c.45-.28,1.36-.53,1.99-.53.74,0,1.04.29.9,1.16l-.59,3.58c-.21,1.25-.25,1.81.36,1.81,1.41,0,3.45-2.3,3.45-3.89,0-.64-.34-.88-.77-.88-.36,0-.68.17-.83.55-.61-.08-.97-.6-.97-1.17,0-.69.61-1.21,1.34-1.21.78,0,1.47.61,1.47,1.94,0,2.65-2.52,5.11-4.86,5.11-1.22,0-1.77-.65-1.53-2.11Z"/>
      <path class="cls-1" d="M1222.48,6.28c0,2.16-1.94,4.1-4.26,4.1-1.86,0-3.15-1.23-3.15-2.95,0-2.24,1.92-4.1,4.25-4.1,1.87,0,3.16,1.23,3.16,2.95ZM1220.11,4.91c0-.84-.16-1.5-.79-1.5-1.43,0-1.87,4.11-1.87,5.42,0,.83.18,1.48.78,1.48,1.44,0,1.88-3.93,1.88-5.39Z"/>
      <path class="cls-1" d="M1223.95,8.27l1.18-7.23c.08-.51-.12-.57-.55-.48v-.03c.46-.28,1.37-.53,1.99-.53.74,0,1.01.28.86,1.16l-1.07,6.29c-.28,1.64-.28,2.57.29,2.79v.03c-.34.07-.65.09-.96.09-1.11,0-2.02-.44-1.74-2.09Z"/>
      <path class="cls-1" d="M1228.15,11.72c0-.66.47-1.19,1.18-1.19.6,0,1.12.44,1.08,1.17-.34.05-.65.35-.65.76,0,.34.23.77,1,.77,1.16,0,1.35-1.01,1.52-1.91l.98-5.06h-.04c-.81,3.23-1.77,4.11-2.94,4.11-1.37,0-1.85-1.22-1.85-2.41,0-2.41,2.07-4.63,4.41-4.63.75,0,1.26.52,2.01.52.33,0,.77-.12,1.07-.46l-1.13,6.76c-.33,2-1.78,3.15-4.03,3.15-1.6,0-2.61-.63-2.61-1.59ZM1233.25,5.71l.14-.78c.13-.7.2-1.51-.49-1.51-1.24,0-2.12,3.32-2.12,5.27,0,.58.11,1.08.49,1.08.75,0,1.62-2.11,1.98-4.06Z"/>
      <path class="cls-1" d="M1237.2,7.57c0-2.26,1.74-4.24,4.22-4.24,1.38,0,2.55.42,2.55,1.45s-1.44,1.88-4.2,1.38l.02-.07c1.48.15,2.25-1,2.25-1.84,0-.45-.19-.84-.62-.84-1.1,0-1.82,1.79-1.82,3.21s.67,2.24,1.81,2.26c.69,0,1.57-.24,2.17-1.06l.05.03c-.88,1.61-2.29,2.54-3.8,2.54s-2.64-1.04-2.64-2.81Z"/>
      <path class="cls-1" d="M1252.2,7.44c-.27,1.64-.31,2.58.26,2.8v.03c-.34.07-.65.09-.96.09-1.1,0-2-.44-1.74-2.09l.54-3.37c.1-.64.05-.92-.27-.92-.71,0-1.57,1.57-2.05,3.51-.22.9-.58,2.53-.14,2.75v.03c-.46.07-.82.1-1.13.1-1.03,0-1.5-.44-1.21-2.04l.7-3.94c.09-.51-.12-.57-.55-.48v-.03c.45-.28,1.36-.53,1.99-.53.74,0,1.05.29.86,1.16l-.64,2.94h.04c.87-3.31,2.09-4.12,3.26-4.12,1.62,0,1.52,1.37,1.36,2.26l-.31,1.85Z"/>
      <path class="cls-1" d="M1255.03,3.51h-.58v-.08c1.88,0,2.95-.61,3.28-2.46h.08l-.42,2.46h.91v.08h-.92l-.66,3.99c-.3,1.83-.3,2.52.4,2.74v.03c-.47.07-.78.09-1.09.09-1.11,0-2-.44-1.74-2.09l.73-4.76Z"/>
      <path class="cls-1" d="M1258.74,7.57c0-2.26,1.74-4.24,4.22-4.24,1.38,0,2.55.42,2.55,1.45s-1.44,1.88-4.2,1.38l.02-.07c1.48.15,2.25-1,2.25-1.84,0-.45-.19-.84-.62-.84-1.1,0-1.82,1.79-1.82,3.21s.67,2.24,1.81,2.26c.69,0,1.57-.24,2.17-1.06l.05.03c-.88,1.61-2.29,2.54-3.8,2.54s-2.64-1.04-2.64-2.81Z"/>
      <path class="cls-1" d="M1270.89,7.57c0-2.26,1.74-4.24,4.22-4.24,1.38,0,2.55.42,2.55,1.45s-1.44,1.88-4.2,1.38l.02-.07c1.48.15,2.25-1,2.25-1.84,0-.45-.19-.84-.62-.84-1.1,0-1.82,1.79-1.82,3.21s.67,2.24,1.81,2.26c.69,0,1.57-.24,2.17-1.06l.05.03c-.88,1.61-2.29,2.54-3.8,2.54s-2.64-1.04-2.64-2.81Z"/>
      <path class="cls-1" d="M1283.27,8.27l1.18-7.23c.08-.51-.12-.57-.55-.48v-.03c.46-.28,1.37-.53,1.99-.53.74,0,1.01.28.86,1.16l-1.07,6.29c-.28,1.64-.28,2.57.29,2.79v.03c-.34.07-.65.09-.96.09-1.11,0-2.02-.44-1.74-2.09Z"/>
      <path class="cls-1" d="M1288.07,8.11l.61-3.72c.08-.51-.12-.57-.55-.48v-.03c.45-.28,1.36-.53,1.99-.53s.9.19.9.74c0,.67-.76,4.29-.78,5.06,0,.38.14.57.4.57.71,0,1.48-1.57,1.96-3.51.22-.9.58-2.53.14-2.75v-.03c.46-.07.82-.1,1.13-.1,1.03,0,1.5.43,1.21,2.04l-.38,2.07c-.21,1.12-.31,2.58.26,2.8v.03c-.34.07-.65.09-.96.09-1.09,0-2.06-.46-1.71-2.09l.43-2.02h-.04c-.87,3.33-1.98,4.12-3.15,4.12-1.62,0-1.62-1.37-1.48-2.26Z"/>
      <path class="cls-1" d="M1296.54,8.94c0-.55.47-1.08,1.12-1.08.46,0,.96.29.94.87-.33.09-.56.44-.56.81s.27.75,1.22.75c.62,0,1.9-.17,1.9-1.03,0-1.6-4.06-1.31-4.06-3.54,0-1.6,1.91-2.41,3.62-2.41,1.11,0,2.42.27,2.42,1.26,0,.57-.44.96-.97.96-.46,0-.91-.27-.91-.81.29-.08.53-.35.53-.66,0-.42-.44-.68-1.09-.68-.72,0-1.6.32-1.6,1.03,0,1.64,3.99,1.16,3.99,3.39,0,1.79-2.15,2.55-3.87,2.55-1.24,0-2.68-.38-2.68-1.43Z"/>
      <path class="cls-1" d="M1304.61,8.94c0-.55.47-1.08,1.12-1.08.46,0,.96.29.94.87-.33.09-.56.44-.56.81s.27.75,1.22.75c.62,0,1.9-.17,1.9-1.03,0-1.6-4.06-1.31-4.06-3.54,0-1.6,1.91-2.41,3.62-2.41,1.11,0,2.42.27,2.42,1.26,0,.57-.44.96-.97.96-.46,0-.91-.27-.91-.81.29-.08.53-.35.53-.66,0-.42-.44-.68-1.09-.68-.72,0-1.6.32-1.6,1.03,0,1.64,3.99,1.16,3.99,3.39,0,1.79-2.15,2.55-3.87,2.55-1.24,0-2.68-.38-2.68-1.43Z"/>
      <path class="cls-1" d="M1313.1,8.11l.61-3.72c.08-.51-.12-.57-.55-.48v-.03c.45-.28,1.36-.53,1.99-.53s.9.19.9.74c0,.67-.76,4.29-.78,5.06,0,.38.14.57.4.57.71,0,1.48-1.57,1.96-3.51.22-.9.58-2.53.14-2.75v-.03c.46-.07.82-.1,1.13-.1,1.03,0,1.5.43,1.21,2.04l-.38,2.07c-.21,1.12-.31,2.58.26,2.8v.03c-.34.07-.65.09-.96.09-1.09,0-2.06-.46-1.71-2.09l.43-2.02h-.04c-.87,3.33-1.98,4.12-3.15,4.12-1.62,0-1.62-1.37-1.48-2.26Z"/>
      <path class="cls-1" d="M1329.17,6.28c0,2.16-1.94,4.1-4.26,4.1-1.86,0-3.15-1.23-3.15-2.95,0-2.24,1.92-4.1,4.25-4.1,1.87,0,3.16,1.23,3.16,2.95ZM1326.8,4.91c0-.84-.16-1.5-.79-1.5-1.43,0-1.87,4.11-1.87,5.42,0,.83.18,1.48.78,1.48,1.44,0,1.88-3.93,1.88-5.39Z"/>
      <path class="cls-1" d="M1330.57,8.94c0-.55.47-1.08,1.12-1.08.46,0,.96.29.94.87-.33.09-.56.44-.56.81s.27.75,1.22.75c.62,0,1.9-.17,1.9-1.03,0-1.6-4.06-1.31-4.06-3.54,0-1.6,1.91-2.41,3.62-2.41,1.11,0,2.42.27,2.42,1.26,0,.57-.44.96-.97.96-.46,0-.91-.27-.91-.81.29-.08.53-.35.53-.66,0-.42-.44-.68-1.09-.68-.72,0-1.6.32-1.6,1.03,0,1.64,3.99,1.16,3.99,3.39,0,1.79-2.15,2.55-3.87,2.55-1.24,0-2.68-.38-2.68-1.43Z"/>
      <path class="cls-1" d="M1345.54,7.44c-.29,1.64-.31,2.58.26,2.8v.03c-.34.07-.65.09-.96.09-1.09,0-2.05-.46-1.7-2.09l.43-2h-.04c-.81,3.23-1.77,4.11-2.94,4.11-1.37,0-1.85-1.22-1.85-2.41,0-2.41,2.07-4.64,4.41-4.64.75,0,1.26.53,2.01.53.33,0,.77-.12,1.07-.46l-.69,4.03ZM1341.1,8.68c0,.58.11,1.08.49,1.08.75,0,1.62-2.11,1.98-4.06l.14-.78c.13-.7.2-1.52-.49-1.52-1.24,0-2.12,3.33-2.12,5.28Z"/>
      <path class="cls-1" d="M1352.54,4.39c.08-.51-.12-.57-.55-.48v-.03c.45-.28,1.36-.53,1.99-.53.74,0,1.09.3.86,1.16l-.75,2.92h.04c.79-3.23,1.77-4.11,2.94-4.11,1.37,0,1.85,1.22,1.85,2.41,0,2.41-1.85,4.69-4.93,4.63v-.05c1.84.02,2.57-3.34,2.57-5.29,0-.58-.11-1.08-.49-1.08-.75,0-1.64,2.13-1.96,4.08-.6,3.3-.8,4.92-.23,5.14v.05c-1.99.05-2.74-.29-2.47-1.94l1.13-6.88Z"/>
      <path class="cls-1" d="M1360.46,8.33l.7-3.94c.09-.51-.12-.57-.55-.48v-.03c.45-.28,1.36-.53,1.99-.53.74,0,1.05.29.86,1.16l-.64,2.94h.04c.87-3.3,1.76-4.17,3.04-4.17,1.18,0,1.64.83,1.64,1.57,0,.99-.68,1.72-1.61,1.72-.74,0-1.27-.46-1.26-1.21.49-.07.92-.44.92-.98,0-.43-.21-.64-.51-.64-.81,0-1.57,1.5-2.13,3.74-.22.9-.58,2.53-.14,2.75v.03c-.46.07-.82.1-1.13.1-1.03,0-1.5-.44-1.21-2.04Z"/>
      <path class="cls-1" d="M1375.92,6.28c0,2.16-1.94,4.1-4.26,4.1-1.86,0-3.15-1.23-3.15-2.95,0-2.24,1.92-4.1,4.25-4.1,1.87,0,3.16,1.23,3.16,2.95ZM1373.54,4.91c0-.84-.16-1.5-.79-1.5-1.43,0-1.87,4.11-1.87,5.42,0,.83.18,1.48.78,1.48,1.44,0,1.88-3.93,1.88-5.39Z"/>
      <path class="cls-1" d="M1377.54,8.33l.7-3.94c.09-.51-.12-.57-.55-.48v-.03c.46-.28,1.37-.53,1.99-.53.74,0,1.05.29.86,1.16l-.64,2.94h.04c.87-3.31,2.02-4.12,3.13-4.12,1.62,0,1.54,1.33,1.34,2.22l-.42,1.9h.04c.87-3.31,2.02-4.12,3.13-4.12,1.62,0,1.52,1.37,1.37,2.26l-.31,1.85c-.27,1.64-.31,2.58.26,2.8v.03c-.34.07-.65.09-.96.09-1.1,0-2-.44-1.74-2.09l.54-3.37c.1-.64.05-.92-.27-.92-.6,0-1.44,1.57-1.92,3.51-.22.9-.58,2.53-.14,2.75v.03c-.46.07-.82.1-1.13.1-1.03,0-1.48-.44-1.21-2.04l.58-3.43c.11-.64.05-.92-.27-.92-.6,0-1.44,1.57-1.92,3.51-.22.9-.58,2.53-.14,2.75v.03c-.46.07-.82.1-1.13.1-1.03,0-1.5-.44-1.21-2.04Z"/>
      <path class="cls-1" d="M1390.2,7.57c0-2.26,1.74-4.24,4.22-4.24,1.38,0,2.55.42,2.55,1.45s-1.44,1.88-4.2,1.38l.02-.07c1.48.15,2.25-1,2.25-1.84,0-.45-.19-.84-.62-.84-1.1,0-1.82,1.79-1.82,3.21s.67,2.24,1.81,2.26c.69,0,1.57-.24,2.17-1.06l.05.03c-.88,1.61-2.29,2.54-3.8,2.54s-2.64-1.04-2.64-2.81Z"/>
      <path class="cls-1" d="M1398.07,8.94c0-.55.47-1.08,1.12-1.08.46,0,.96.29.94.87-.33.09-.56.44-.56.81s.27.75,1.22.75c.62,0,1.9-.17,1.9-1.03,0-1.6-4.06-1.31-4.06-3.54,0-1.6,1.91-2.41,3.62-2.41,1.11,0,2.42.27,2.42,1.26,0,.57-.44.96-.97.96-.46,0-.91-.27-.91-.81.29-.08.53-.35.53-.66,0-.42-.44-.68-1.09-.68-.72,0-1.6.32-1.6,1.03,0,1.64,3.99,1.16,3.99,3.39,0,1.79-2.15,2.55-3.87,2.55-1.24,0-2.68-.38-2.68-1.43Z"/>
      <path class="cls-1" d="M1406.14,8.94c0-.55.47-1.08,1.12-1.08.46,0,.96.29.94.87-.33.09-.56.44-.56.81s.27.75,1.22.75c.62,0,1.9-.17,1.9-1.03,0-1.6-4.06-1.31-4.06-3.54,0-1.6,1.91-2.41,3.62-2.41,1.11,0,2.42.27,2.42,1.26,0,.57-.44.96-.97.96-.46,0-.91-.27-.91-.81.29-.08.53-.35.53-.66,0-.42-.44-.68-1.09-.68-.72,0-1.6.32-1.6,1.03,0,1.64,3.99,1.16,3.99,3.39,0,1.79-2.15,2.55-3.87,2.55-1.24,0-2.68-.38-2.68-1.43Z"/>
      <path class="cls-1" d="M1421.11,7.44c-.29,1.64-.31,2.58.26,2.8v.03c-.34.07-.65.09-.96.09-1.09,0-2.05-.46-1.7-2.09l.43-2h-.04c-.81,3.23-1.77,4.11-2.94,4.11-1.37,0-1.85-1.22-1.85-2.41,0-2.41,2.07-4.64,4.41-4.64.75,0,1.26.53,2.01.53.33,0,.77-.12,1.07-.46l-.69,4.03ZM1416.66,8.68c0,.58.11,1.08.49,1.08.75,0,1.62-2.11,1.98-4.06l.14-.78c.13-.7.2-1.52-.49-1.52-1.24,0-2.12,3.33-2.12,5.28Z"/>
      <path class="cls-1" d="M1427.19,7.97c0-2.41,1.85-4.69,4.93-4.63v.05c-1.84-.02-2.57,3.34-2.57,5.29,0,.58.11,1.08.49,1.08.75,0,1.65-2.13,1.96-4.08l.72-4.65c.08-.51-.12-.57-.55-.48v-.03c.46-.28,1.35-.53,1.98-.53.74,0,1.03.27.88,1.16l-1.03,6.28c-.18,1.12-.31,2.58.26,2.8v.03c-.34.07-.65.09-.96.09-1.09,0-2.04-.46-1.7-2.09l.42-2h-.04c-.79,3.23-1.77,4.11-2.94,4.11-1.37,0-1.85-1.22-1.85-2.41Z"/>
      <path class="cls-1" d="M1436.26,8.27l.69-3.87c.09-.51-.11-.57-.55-.48v-.03c.45-.28,1.36-.53,1.99-.53.78,0,1,.32.85,1.16l-.52,2.94c-.29,1.64-.33,2.57.25,2.79v.03c-.34.07-.65.09-.96.09-1.1,0-2.04-.44-1.74-2.09ZM1437.54,2.82c.27-.44.4-1.43,0-1.92.31-.57.91-.9,1.44-.9.49,0,1.08.26,1.08.99,0,1.01-1.17,1.91-2.51,1.86l-.02-.03Z"/>
      <path class="cls-1" d="M1445.09,8.11l.61-3.72c.08-.51-.12-.57-.55-.48v-.03c.46-.28,1.37-.53,1.99-.53s.9.19.9.74c0,.67-.76,4.29-.78,5.06,0,.38.14.57.4.57.71,0,1.48-1.57,1.96-3.51.22-.9.58-2.53.14-2.75v-.03c.46-.07.82-.1,1.13-.1,1.03,0,1.5.43,1.21,2.04l-.38,2.07c-.21,1.12-.31,2.58.26,2.8v.03c-.34.07-.65.09-.96.09-1.09,0-2.06-.46-1.71-2.09l.43-2.02h-.04c-.87,3.33-1.98,4.12-3.15,4.12-1.62,0-1.62-1.37-1.48-2.26Z"/>
      <path class="cls-1" d="M1460.7,7.44c-.27,1.64-.31,2.58.26,2.8v.03c-.34.07-.65.09-.96.09-1.1,0-2-.44-1.74-2.09l.54-3.37c.1-.64.05-.92-.27-.92-.71,0-1.57,1.57-2.05,3.51-.22.9-.58,2.53-.14,2.75v.03c-.46.07-.82.1-1.13.1-1.03,0-1.5-.44-1.21-2.04l.7-3.94c.09-.51-.12-.57-.55-.48v-.03c.46-.28,1.37-.53,1.99-.53.74,0,1.05.29.86,1.16l-.64,2.94h.04c.87-3.31,2.09-4.12,3.26-4.12,1.62,0,1.52,1.37,1.37,2.26l-.31,1.85Z"/>
      <path class="cls-1" d="M1467.7,4.39c.08-.51-.12-.57-.55-.48v-.03c.46-.28,1.37-.53,1.99-.53.74,0,1.09.3.86,1.16l-.75,2.92h.04c.79-3.23,1.77-4.11,2.94-4.11,1.37,0,1.85,1.22,1.85,2.41,0,2.41-1.85,4.69-4.93,4.63v-.05c1.84.02,2.57-3.34,2.57-5.29,0-.58-.11-1.08-.49-1.08-.75,0-1.64,2.13-1.96,4.08-.6,3.3-.8,4.92-.23,5.14v.05c-1.99.05-2.74-.29-2.47-1.94l1.13-6.88Z"/>
      <path class="cls-1" d="M1475.7,7.57c0-2.26,1.74-4.24,4.22-4.24,1.38,0,2.55.42,2.55,1.45s-1.44,1.88-4.2,1.38l.02-.07c1.48.15,2.25-1,2.25-1.84,0-.45-.19-.84-.62-.84-1.1,0-1.82,1.79-1.82,3.21s.67,2.24,1.81,2.26c.69,0,1.57-.24,2.17-1.06l.05.03c-.88,1.61-2.29,2.54-3.8,2.54s-2.64-1.04-2.64-2.81Z"/>
      <path class="cls-1" d="M1486.23,6.62c0,1.46.67,2.24,1.81,2.26.69,0,1.57-.24,2.17-1.06l.05.03c-.88,1.61-2.29,2.54-3.8,2.54s-2.64-1.04-2.64-2.81c0-2.26,1.74-4.24,4.22-4.24,1.51,0,2.51.61,2.51,1.66,0,.81-.6,1.38-1.34,1.38-.55,0-1.12-.34-1.07-1.18.25-.1.65-.42.65-.96,0-.51-.27-.82-.74-.82-1.12,0-1.83,1.79-1.83,3.21Z"/>
      <path class="cls-1" d="M1494.36,6.62c0,1.46.67,2.24,1.81,2.26.69,0,1.57-.24,2.17-1.06l.05.03c-.88,1.61-2.29,2.54-3.8,2.54s-2.64-1.04-2.64-2.81c0-2.26,1.74-4.24,4.22-4.24,1.51,0,2.51.61,2.51,1.66,0,.81-.6,1.38-1.34,1.38-.55,0-1.12-.34-1.07-1.18.25-.1.65-.42.65-.96,0-.51-.27-.82-.74-.82-1.12,0-1.83,1.79-1.83,3.21Z"/>
      <path class="cls-1" d="M1506.82,7.44c-.29,1.64-.31,2.58.26,2.8v.03c-.34.07-.65.09-.96.09-1.09,0-2.05-.46-1.7-2.09l.43-2h-.04c-.81,3.23-1.77,4.11-2.94,4.11-1.37,0-1.85-1.22-1.85-2.41,0-2.41,2.07-4.64,4.41-4.64.75,0,1.26.53,2.01.53.33,0,.77-.12,1.07-.46l-.69,4.03ZM1502.37,8.68c0,.58.11,1.08.49,1.08.75,0,1.62-2.11,1.98-4.06l.14-.78c.13-.7.2-1.52-.49-1.52-1.24,0-2.12,3.33-2.12,5.28Z"/>
      <path class="cls-1" d="M1509.65,3.51h-.58v-.08c1.88,0,2.95-.61,3.28-2.46h.08l-.42,2.46h.91v.08h-.92l-.66,3.99c-.3,1.83-.3,2.52.4,2.74v.03c-.47.07-.78.09-1.09.09-1.11,0-2-.44-1.74-2.09l.73-4.76Z"/>
      <path class="cls-1" d="M1520.8,6.28c0,2.16-1.94,4.1-4.26,4.1-1.86,0-3.15-1.23-3.15-2.95,0-2.24,1.92-4.1,4.25-4.1,1.87,0,3.16,1.23,3.16,2.95ZM1518.43,4.91c0-.84-.16-1.5-.79-1.5-1.43,0-1.87,4.11-1.87,5.42,0,.83.18,1.48.78,1.48,1.44,0,1.88-3.93,1.88-5.39Z"/>
      <path class="cls-1" d="M1526.23,7.97c0-2.41,1.85-4.69,4.93-4.63v.05c-1.84-.02-2.57,3.34-2.57,5.29,0,.58.11,1.08.49,1.08.75,0,1.65-2.13,1.96-4.08l.72-4.65c.08-.51-.12-.57-.55-.48v-.03c.46-.28,1.35-.53,1.98-.53.74,0,1.03.27.88,1.16l-1.03,6.28c-.18,1.12-.31,2.58.26,2.8v.03c-.34.07-.65.09-.96.09-1.09,0-2.04-.46-1.7-2.09l.42-2h-.04c-.79,3.23-1.77,4.11-2.94,4.11-1.37,0-1.85-1.22-1.85-2.41Z"/>
      <path class="cls-1" d="M1535.31,8.27l.69-3.87c.09-.51-.11-.57-.55-.48v-.03c.45-.28,1.36-.53,1.99-.53.78,0,1,.32.85,1.16l-.52,2.94c-.29,1.64-.33,2.57.25,2.79v.03c-.34.07-.65.09-.96.09-1.1,0-2.04-.44-1.74-2.09ZM1536.58,2.82c.27-.44.4-1.43,0-1.92.31-.57.91-.9,1.44-.9.49,0,1.08.26,1.08.99,0,1.01-1.17,1.91-2.51,1.86l-.02-.03Z"/>
      <path class="cls-1" d="M1543.54,11.72c0-.66.47-1.19,1.18-1.19.6,0,1.12.44,1.08,1.17-.34.05-.65.35-.65.76,0,.34.23.77,1,.77,1.16,0,1.35-1.01,1.52-1.91l.98-5.06h-.04c-.81,3.23-1.77,4.11-2.94,4.11-1.37,0-1.85-1.22-1.85-2.41,0-2.41,2.07-4.63,4.41-4.63.75,0,1.26.52,2.01.52.33,0,.77-.12,1.07-.46l-1.13,6.76c-.33,2-1.78,3.15-4.03,3.15-1.6,0-2.61-.63-2.61-1.59ZM1548.63,5.71l.14-.78c.13-.7.2-1.51-.49-1.51-1.24,0-2.12,3.32-2.12,5.27,0,.58.11,1.08.49,1.08.75,0,1.62-2.11,1.98-4.06Z"/>
      <path class="cls-1" d="M1560.02,6.28c0,2.16-1.94,4.1-4.26,4.1-1.86,0-3.15-1.23-3.15-2.95,0-2.24,1.92-4.1,4.25-4.1,1.87,0,3.16,1.23,3.16,2.95ZM1557.65,4.91c0-.84-.16-1.5-.79-1.5-1.43,0-1.87,4.11-1.87,5.42,0,.83.18,1.48.78,1.48,1.44,0,1.88-3.93,1.88-5.39Z"/>
      <path class="cls-1" d="M1561.49,8.27l1.18-7.23c.08-.51-.12-.57-.55-.48v-.03c.46-.28,1.37-.53,1.99-.53.74,0,1.01.28.86,1.16l-1.07,6.29c-.28,1.64-.28,2.57.29,2.79v.03c-.34.07-.65.09-.96.09-1.11,0-2.02-.44-1.74-2.09Z"/>
      <path class="cls-1" d="M1572.77,7.44c-.29,1.64-.31,2.58.26,2.8v.03c-.34.07-.65.09-.96.09-1.09,0-2.05-.46-1.7-2.09l.43-2h-.04c-.81,3.23-1.77,4.11-2.94,4.11-1.37,0-1.85-1.22-1.85-2.41,0-2.41,2.07-4.64,4.41-4.64.75,0,1.26.53,2.01.53.33,0,.77-.12,1.07-.46l-.69,4.03ZM1568.32,8.68c0,.58.11,1.08.49,1.08.75,0,1.62-2.11,1.98-4.06l.14-.78c.13-.7.2-1.52-.49-1.52-1.24,0-2.12,3.33-2.12,5.28Z"/>
    </g>
  </g>
</svg>